<svg width="270" height="99" viewBox="0 0 270 99" fill="none" xmlns="http://www.w3.org/2000/svg">
<path d="M86.0381 62.7795C86.0381 62.7795 87.4202 57.174 88.3672 55.9966C89.3142 54.8192 93.5119 53.7953 93.5119 53.7953C93.5119 53.7953 95.4059 48.0619 96.1993 47.6524C96.9928 47.2428 104.595 45.4255 104.595 45.4255C104.595 45.4255 101.216 47.9339 98.5798 49.4185C98.5798 49.4185 97.0441 54.2048 96.3274 55.2031C96.3274 55.2031 91.925 56.6108 90.85 57.046C89.8006 57.5067 88.6744 61.6276 86.0637 62.7539L86.0381 62.7795Z" fill="#222224"/>
<path d="M90.0566 52.7715C90.0566 52.7715 92.4625 51.4918 93.9983 52.3876C95.534 53.2835 100.116 57.174 100.116 57.174C100.116 57.174 94.0495 57.174 90.0566 52.7972V52.7715Z" fill="#222224"/>
<path d="M229.013 90.4487C229.013 90.4487 229.269 89.3992 229.448 89.1945C229.627 88.9641 230.395 88.785 230.395 88.785C230.395 88.785 230.754 87.7356 230.882 87.6332C231.01 87.5308 232.443 87.2236 232.443 87.2236C232.443 87.2236 231.829 87.6844 231.317 87.9659C231.317 87.9659 231.035 88.8617 230.907 89.0409C230.907 89.0409 230.088 89.2969 229.883 89.3737C229.679 89.4505 229.474 90.2183 228.988 90.4231L229.013 90.4487Z" fill="#222224"/>
<path d="M229.756 88.6059C229.756 88.6059 230.191 88.3755 230.472 88.5291C230.754 88.6827 231.598 89.425 231.598 89.425C231.598 89.425 230.472 89.425 229.73 88.6059H229.756Z" fill="#222224"/>
<path d="M254.788 91.6517C254.788 91.6517 254.967 90.9606 255.069 90.807C255.197 90.6535 255.709 90.5255 255.709 90.5255C255.709 90.5255 255.939 89.8088 256.042 89.7576C256.144 89.7064 257.091 89.4761 257.091 89.4761C257.091 89.4761 256.682 89.7832 256.349 89.9624C256.349 89.9624 256.17 90.5511 256.067 90.6791C256.067 90.6791 255.53 90.8582 255.376 90.9094C255.248 90.9606 255.095 91.4725 254.788 91.6261V91.6517Z" fill="#222224"/>
<path d="M255.3 90.423C255.3 90.423 255.607 90.2695 255.786 90.3719C255.965 90.4743 256.554 90.9605 256.554 90.9605C256.554 90.9605 255.811 90.9605 255.3 90.423Z" fill="#222224"/>
<path d="M267.176 93.8784C267.176 93.8784 267.355 93.1618 267.483 93.0082C267.611 92.8546 268.148 92.7266 268.148 92.7266C268.148 92.7266 268.404 91.9843 268.481 91.9331C268.583 91.8819 269.556 91.6516 269.556 91.6516C269.556 91.6516 269.121 91.9843 268.788 92.1635C268.788 92.1635 268.583 92.7778 268.507 92.9058C268.507 92.9058 267.944 93.0849 267.816 93.1361C267.688 93.1873 267.534 93.7249 267.201 93.8784H267.176Z" fill="#222224"/>
<path d="M267.713 92.5986C267.713 92.5986 268.02 92.445 268.225 92.5474C268.43 92.6498 269.019 93.1617 269.019 93.1617C269.019 93.1617 268.251 93.1617 267.739 92.5986H267.713Z" fill="#222224"/>
<path d="M160.981 92.3683C160.981 92.3683 162.235 89.9111 162.824 89.476C163.387 89.0408 165.46 89.0408 165.46 89.0408C165.46 89.0408 166.996 86.5836 167.405 86.4812C167.815 86.3789 171.552 86.3789 171.552 86.3789C171.552 86.3789 169.709 87.1724 168.327 87.5563C168.327 87.5563 167.073 89.604 166.638 89.9879C166.638 89.9879 164.436 90.1414 163.899 90.2438C163.361 90.3462 162.363 92.1379 161.032 92.3683H160.981Z" fill="#222224"/>
<path d="M163.976 88.1962C163.976 88.1962 165.23 87.8635 165.844 88.4522C166.458 89.0409 168.148 91.3701 168.148 91.3701C168.148 91.3701 165.332 90.679 163.976 88.1962Z" fill="#222224"/>
<path d="M241.606 98.6137C241.606 98.6137 241.964 97.9226 242.118 97.8202C242.271 97.6922 242.86 97.6922 242.86 97.6922C242.86 97.6922 243.295 97.0011 243.398 96.9755C243.5 96.9499 244.549 96.95 244.549 96.95C244.549 96.95 244.038 97.1802 243.654 97.2826C243.654 97.2826 243.295 97.8458 243.193 97.9481C243.193 97.9481 242.579 97.9993 242.425 98.0249C242.271 98.0249 241.99 98.5625 241.632 98.6137H241.606Z" fill="#222224"/>
<path d="M242.451 97.4361C242.451 97.4361 242.809 97.3337 242.963 97.5129C243.142 97.6665 243.602 98.332 243.602 98.332C243.602 98.332 242.809 98.1528 242.425 97.4617L242.451 97.4361Z" fill="#222224"/>
<path d="M111.403 8.10697C111.403 8.10697 113.604 4.70278 114.5 4.16527C115.396 3.62776 118.416 3.9093 118.416 3.9093C118.416 3.9093 121.001 0.556232 121.616 0.453849C122.23 0.351466 127.707 0.914555 127.707 0.914555C127.707 0.914555 124.892 1.78479 122.793 2.16872C122.793 2.16872 120.668 4.98428 119.952 5.4706C119.952 5.4706 116.701 5.36825 115.882 5.41944C115.063 5.47063 113.374 7.95344 111.377 8.08142L111.403 8.10697Z" fill="#222224"/>
<path d="M116.394 2.42464C116.394 2.42464 118.288 2.14311 119.082 3.09015C119.901 4.0372 122.051 7.67182 122.051 7.67182C122.051 7.67182 118.032 6.26401 116.394 2.42464Z" fill="#222224"/>
<path d="M218.673 76.0639C218.673 76.0639 219.978 72.2245 220.72 71.4822C221.462 70.7143 224.457 70.2792 224.457 70.2792C224.457 70.2792 226.146 66.3887 226.71 66.1327C227.273 65.8767 232.724 65.1089 232.724 65.1089C232.724 65.1089 230.216 66.6446 228.271 67.5404C228.271 67.5404 226.914 70.7912 226.326 71.4311C226.326 71.4311 223.152 72.1221 222.384 72.3781C221.616 72.634 220.567 75.4496 218.673 76.0639Z" fill="#222224"/>
<path d="M222.128 69.3321C222.128 69.3321 223.894 68.5898 224.892 69.3321C225.916 70.0488 228.885 73.0691 228.885 73.0691C228.885 73.0691 224.636 72.6851 222.128 69.3576V69.3321Z" fill="#222224"/>
<path d="M58.2161 25.4352C58.2161 25.4352 59.1887 22.0053 59.8286 21.2631C60.4685 20.5208 64.0517 20.4184 64.0517 20.4184C64.0517 20.4184 65.5619 17.2957 66.0994 17.0398C66.6114 16.7838 71.7815 16.5278 71.7815 16.5278C71.7815 16.5278 70.0667 17.6796 68.3006 18.5755C68.3006 18.5755 66.3809 20.7767 65.869 21.391C65.869 21.391 62.9512 22.1589 62.2345 22.4405C61.5179 22.6964 59.9565 24.7697 58.2161 25.4096V25.4352Z" fill="#222224"/>
<path d="M61.8506 19.6248C61.8506 19.6248 63.4631 18.8569 64.4357 19.4968C65.4084 20.1367 68.3006 22.7987 68.3006 22.7987C68.3006 22.7987 64.3334 22.5939 61.8762 19.6248H61.8506Z" fill="#222224"/>
<path d="M169.453 29.9657C169.453 29.9657 170.016 27.9948 170.375 27.5853C170.758 27.1758 172.78 27.099 172.78 27.099C172.78 27.099 173.651 25.3073 173.958 25.1793C174.265 25.0257 177.208 24.8977 177.208 24.8977C177.208 24.8977 176.21 25.5633 175.212 26.0752C175.212 26.0752 174.111 27.3293 173.83 27.6876C173.83 27.6876 172.166 28.1228 171.757 28.2764C171.347 28.4299 170.451 29.6074 169.453 29.9913V29.9657Z" fill="#222224"/>
<path d="M171.526 26.6382C171.526 26.6382 172.448 26.2031 173.011 26.5615C173.574 26.9198 175.212 28.4555 175.212 28.4555C175.212 28.4555 172.934 28.3532 171.526 26.6382Z" fill="#222224"/>
<path d="M249.796 81.5157C249.796 81.5157 250.052 80.6198 250.232 80.4151C250.411 80.2103 251.332 80.1847 251.332 80.1847C251.332 80.1847 251.716 79.3657 251.87 79.3145C251.998 79.2377 253.354 79.1865 253.354 79.1865C253.354 79.1865 252.893 79.4937 252.433 79.724C252.433 79.724 251.921 80.3127 251.793 80.4663C251.793 80.4663 251.025 80.671 250.846 80.7478C250.667 80.8246 250.257 81.3621 249.796 81.5157Z" fill="#222224"/>
<path d="M250.769 80.0055C250.769 80.0055 251.179 79.8008 251.435 79.98C251.69 80.1336 252.433 80.8503 252.433 80.8503C252.433 80.8503 251.383 80.799 250.743 80.0312L250.769 80.0055Z" fill="#222224"/>
<path d="M1.11297 66.1071C1.11297 66.1071 0.728947 64.1106 0.856923 63.5475C1.01049 63.01 2.80219 62.0117 2.80219 62.0117C2.80219 62.0117 2.77661 60.0409 2.98137 59.7593C3.18613 59.5033 5.7457 58.0444 5.7457 58.0444C5.7457 58.0444 5.15704 59.0683 4.49156 59.9897C4.49156 59.9897 4.08201 61.6023 3.97962 62.063C3.97962 62.063 2.69987 63.2147 2.39273 63.5219C2.11118 63.829 1.82964 65.288 1.11297 66.0815V66.1071Z" fill="#222224"/>
<path d="M1.4458 62.2166C1.4458 62.2166 2.06009 61.4231 2.72556 61.4743C3.39104 61.5511 5.54098 62.1654 5.54098 62.1654C5.54098 62.1654 3.46783 63.0869 1.4458 62.2166Z" fill="#222224"/>
<path d="M3.26301 21.0073C3.26301 21.0073 3.49341 14.9922 4.26127 13.6868C5.02912 12.3814 10.8393 12.1255 10.8393 12.1255C10.8393 12.1255 12.2214 7.03193 12.9381 6.49442C13.6548 5.95691 21.3333 4.13965 21.3333 4.13965C21.3333 4.13965 18.3386 6.46888 15.9327 8.31177C15.9327 8.31177 14.3969 12.0488 13.8082 13.1238C13.8082 13.1238 8.8685 14.9155 7.87028 15.5042C6.87207 16.0929 5.6691 19.5227 3.23755 20.9816L3.26301 21.0073Z" fill="#222224"/>
<path d="M7.84473 11.2041C7.84473 11.2041 9.50839 9.97549 11.1721 10.641C12.8102 11.3065 18.1852 14.6083 18.1852 14.6083C18.1852 14.6083 12.4007 14.9923 7.84473 11.2041Z" fill="#222224"/>
</svg>
