<svg fill="none" height="821" viewBox="0 0 1915 821" width="1915" xmlns="http://www.w3.org/2000/svg"><path d="m-370.619 732.723h3011.849l-25.8 35.348-3119.426 52.292 133.402-87.64z" fill="#fdb473" opacity=".13"/><path d="m-227.465 695.993 1131.976-11.313 1390.099 39.571z" fill="#ff5b38" opacity=".13"/><path d="m-703.127 673.366c14.743 0 1685.089-38.163 1685.089-38.163l-1729.343 8.472z" fill="#ffb247" opacity=".13"/><path d="m2589.6 423.244-3093.622 112.314 3115.732-66.19z" fill="#ffdf6b" opacity=".13"/><path d="m2582.23 523.529-2464.953 19.785h2442.813z" fill="#fff" opacity=".13"/><path d="m-504.022 553.22 1755.142 11.313-1733.027 12.593z" fill="#ffdea6" opacity=".21"/><path d="m-548.276 365.065 3215.296-60.15-184.36 60.15-3078.876 90.277z" fill="#ffeca5" opacity=".13"/><path d="m2611.71 242.717-2042.728 70.21 2013.248-42.131z" fill="#fff" opacity=".13"/><path d="m-596.216 186.56 3237.446-68.187-118 80.217-3148.932 122.194z" fill="#ffeca5" opacity=".06"/><path d="m2515.86.043457-1039.83 26.056543h1039.83z" fill="#fff" opacity=".13"/><path d="m2611.71 628.138-1935.816-22.626 1873.136 48.76z" fill="#ffc86d" opacity=".21"/><path d="m-504.022 54.1785 1839.942-8.0115-1817.827 24.06z" fill="#fff" opacity=".13"/></svg>