<svg fill="none" height="89" viewBox="0 0 581 89" width="581" xmlns="http://www.w3.org/2000/svg"><g fill="#654964"><path d="m61.8047 23.3869c6.6804-.5119 12.465-3.0715 20.2204-3.1227 7.0899-.0512 8.9327-.1279 13.7446-6.2197 4.172.2303 8.1393-.4096 11.5183.3071 4.965 1.0494 9.06 3.0715 14.563 2.8156 10.213 5.5287 14.999 11.1086 27.617 9.3169 5.683-.8191 10.008-1.587 15.818-.7679 4.505.6398 7.167 2.5851 11.851.7934 8.242-3.1483 21.244-3.6602 28.769 2.7388 2.329 1.9709 23.983 12.158 26.466 13.9241 5.375 3.865 15.971-20.3743 22.293-18.3522 3.711 1.203 6.68 3.5322 10.673 4.4025 8.907 1.9452 18.864 22.1403 27.797 23.4201 13.335 1.9197 22.037 32.046 34.579 35.4246-10.52 0-21.065-.7679-31.61-.7679h-229.0627c-19.0413-.7996-17.5413 0-67.0413-1.2996z"/><path d="m288 79.6699c18.045-3.7626 43.512-70.46525 61.71-66.4979 6.22 1.3566 14.871 2.9947 21.142 1.2798 3.558-.9727 6.117-4.3001 9.572-5.75906 8.268-3.53222 17.328-1.30538 25.391-7.34598 6.783-5.06797 15.511 5.70789 23.855 6.98768 6.654 1.02383 24.571 6.42456 30.023 11.92766 20.297 20.5022 88.022 38.2656 120.937 64.5781-49.475-1.0494-173.331.7423-222.832.7167-22.882 0-46.097 3.7626-68.851 2.2013-.461-3.3275.077-6.5782-.921-8.1139z"/></g></svg>