<svg fill="none" height="124" viewBox="0 0 162 124" width="162" xmlns="http://www.w3.org/2000/svg"><g fill="#120b2f"><path d="m74.9226 98.4875c-6.2709-6.8853-11.2363-14.1545-15.9202-21.5261-4.6328-7.3972-8.8816-14.8968-12.8233-22.5755-3.9416-7.6787-7.5761-15.511-10.8523-23.5993-3.225-8.1139-6.2453-16.4069-8.1393-25.51902 7.3714 5.68222 13.335 12.41402 18.7356 19.47842 5.3494 7.1156 10.0335 14.6664 14.0519 22.5499 4.0185 7.8835 7.4226 16.0998 10.0589 24.572 2.5851 8.5234 4.5559 17.2771 4.8887 26.594z"/><path d="m79.8115 104.349c-3.8905-8.4214-5.887-17.1751-7.2947-25.8777-1.3566-8.7281-1.9453-17.4563-1.9709-26.1845 0-8.7281.5887-17.4563 1.8173-26.1333 1.3054-8.7025 3.1226-17.35389 6.5524-25.979672 3.0458 8.753762 4.556 17.456272 5.631 26.133272 1.0238 8.677 1.4845 17.3284 1.4845 25.9542 0 8.6514-.4352 17.2771-1.3822 25.9029-.9726 8.6514-2.329 17.2772-4.8374 26.1588z"/><path d="m76.2795 104.732c2.2524-7.8575 4.7608-15.4083 7.3715-22.9591 2.5595-7.5507 5.3238-15.0247 8.1392-22.4731 2.8411-7.4483 5.7333-14.8456 8.8298-22.1916 3.046-7.3715 6.22-14.6919 9.752-22.0379-.435 8.1651-2.022 16.1509-4.018 23.9576-1.971 7.8323-4.479 15.5111-7.3204 23.0362-2.8923 7.5252-6.1172 14.9224-9.8541 22.0892-3.7113 7.1668-7.8065 14.1801-12.9256 20.5787z"/><path d="m67.8071 107.036c4.5816-6.373 8.8303-12.1324 13.1559-17.9682 4.3-5.7847 8.6257-11.5182 13.0536-17.1749 4.428-5.6822 8.9844-11.2877 13.7704-16.8164 4.837-5.5031 9.828-10.9806 15.741-16.1253-1.229 7.7811-3.967 14.9223-7.269 21.7308-3.353 6.7829-7.397 13.2075-12.081 19.1713s-9.9822 11.4925-15.9715 16.3045c-6.0149 4.7352-12.7464 8.9332-20.3994 10.9042z"/><path d="m73.4128 123.161c6.0661-8.318 12.644-16.074 19.2732-23.7525 6.6291-7.6788 13.361-15.2295 20.092-22.7291 6.706-7.5508 13.463-14.9991 19.99-22.6522 6.527-7.6788 12.926-15.3575 18.685-23.8553-2.841 9.9311-8.14 19.0433-13.873 27.5411-5.785 8.4978-12.209 16.5348-19.043 24.1368-6.808 7.6275-14.052 14.8455-21.551 21.7562-7.4995 6.911-15.2803 13.515-23.5988 19.555z"/><path d="m120.994 92.5485c2.074-5.3239 4.812-10.1615 7.679-14.8967 2.918-4.6841 6.066-9.1889 9.419-13.5401 3.353-4.3513 6.936-8.5235 10.75-12.5164 3.839-3.9674 7.858-7.8067 12.491-11.1598-2.074 5.324-4.812 10.1871-7.679 14.8967-2.918 4.6841-6.066 9.1889-9.445 13.5402-3.378 4.3513-6.936 8.5235-10.75 12.5164-3.839 3.9674-7.858 7.8067-12.49 11.1597z"/><path d="m75.7162 109.749c-6.2452-5.989-11.9273-12.0045-17.7631-17.8659-5.7845-5.8614-11.5945-11.5949-17.5326-17.2004-5.9381-5.6054-11.9787-11.0829-18.1728-16.5348-6.1684-5.4775-12.51601-10.8271-18.83803-16.7397 8.39523 2.1245 16.22733 5.7847 23.62433 10.1615 7.3715 4.4281 14.231 9.6752 20.4762 15.5879 6.2453 5.9126 11.8763 12.4908 16.7138 19.5808 4.7863 7.1156 8.8815 14.7436 11.4922 23.0106z"/><path d="m59.2841 104.169c-5.6054-4.069-10.5452-8.3694-15.4851-12.5671l-14.5381-12.6187-14.5126-12.6699c-4.86312-4.3001-9.77742-8.6258-14.56373-13.617 6.83393 1.203 13.18153 3.737 19.17083 6.9109 5.9893 3.1995 11.5947 7.09 16.6881 11.5693 5.1191 4.4536 9.7518 9.4704 13.7447 14.9479 3.9672 5.5031 7.3715 11.4414 9.4959 18.0446z"/></g></svg>