<svg fill="none" height="95" viewBox="0 0 111 95" width="111" xmlns="http://www.w3.org/2000/svg"><g fill="#120b2f"><path d="m43.0371 73.4185c1.2542-7.7044 3.8393-14.7944 6.9108-21.6029 3.1226-6.7829 6.8083-13.2585 11.0059-19.3759 4.1976-6.143 8.8816-11.9021 14.103-17.2516 5.247-5.32397 10.9292-10.26393 17.6863-14.205678-2.5595 7.397188-5.9381 13.949678-9.4958 20.374178-3.6089 6.3734-7.4483 12.5164-11.5691 18.4802-4.0952 5.9638-8.4208 11.7741-13.0791 17.4307-4.7096 5.6311-9.5983 11.1599-15.562 16.2022z"/><path d="m38.3279 77.7698c-1.4334-6.1942-1.6893-12.0557-1.6126-17.8659.1024-5.7847.6399-11.4669 1.5358-17.098.8958-5.6311 2.15-11.1853 3.8393-16.714 1.7404-5.5287 3.8136-11.0318 7.1154-16.45811 2.0988 6.01501 2.7899 11.92761 3.0203 17.81461.1791 5.8615-.2048 11.6973-1.1518 17.4308-.9214 5.7334-2.3548 11.3901-4.3512 16.9188-2.0476 5.5031-4.556 10.9294-8.3952 15.9974z"/><path d="m41.2456 78.4607c-3.1226-4.6073-5.5286-9.5216-7.5506-14.5896s-3.7113-10.2639-4.9655-15.5623c-1.2798-5.2983-2.15-10.699-2.6619-16.1253-.4863-5.4263-.5887-10.9294.1024-16.4325 1.9964 5.1959 3.4809 10.3663 4.8887 15.5366 1.4077 5.1704 2.7642 10.3151 3.9928 15.5111 1.2542 5.1703 2.406 10.3663 3.481 15.6134 1.1006 5.2472 2.1244 10.5455 2.7131 16.0486z"/><path d="m48.0538 81.2759c-5.4774-1.8173-10.2125-4.8631-14.4869-8.3698-4.2488-3.5578-8.0113-7.6787-11.1851-12.2092-3.1995-4.5304-5.8102-9.4448-7.7042-14.6663-1.8685-5.2216-3.1227-10.6991-2.9691-16.4837 4.044 4.1209 7.2946 8.293 10.4684 12.4395 3.1483 4.1465 6.1429 8.293 9.0608 12.4651 2.9434 4.1721 5.8101 8.3955 8.6512 12.7724 2.8155 4.4025 5.6566 8.8561 8.1649 14.052z"/><path d="m41.655 94.1002c-4.9911-4.2489-9.2911-9.1633-13.1816-14.3848-3.8905-5.2216-7.3458-10.7502-10.3149-16.5605-2.9946-5.7846-5.4774-11.8253-7.4482-18.0194-1.99644-6.1942-3.45531-12.5676-4.01841-19.0945 3.14822 5.7591 5.91251 11.4925 8.72801 17.2004l8.5232 16.9444c2.8922 5.6055 5.8101 11.2109 8.8047 16.8164 2.9947 5.6054 6.0405 11.211 8.9072 17.098z"/><path d="m28.4224 87.0609c-3.5066-3.2762-6.4244-6.9108-9.1887-10.6222-2.7387-3.737-5.2726-7.602-7.6018-11.5693-2.32918-3.9674-4.47918-8.0627-6.39882-12.286-1.89405-4.2233-3.63452-8.549-4.786303-13.2074 3.506553 3.2762 6.424423 6.9108 9.214303 10.6222 2.73872 3.737 5.27262 7.6019 7.60182 11.5693 2.3291 3.9673 4.4791 8.0627 6.3988 12.286 1.894 4.2489 3.6344 8.549 4.8118 13.2074z"/><path d="m41.1689 82.7095c3.0459-6.6037 7.2691-12.4907 12.0298-17.917 4.7863-5.4007 10.1613-10.2639 15.997-14.5128s12.1065-7.8835 18.7101-10.8014c6.6036-2.8667 13.5402-5.068 20.7322-5.9383-5.887 4.2489-11.7482 8.0115-17.456 11.9277-5.7333 3.865-11.3386 7.7811-16.8928 11.8252-5.5286 4.0186-11.006 8.165-16.4322 12.4395-5.4774 4.2489-10.8523 8.6514-16.6881 12.9771z"/><path d="m55.4509 79.8172c2.4828-5.2728 5.9637-9.8288 9.8286-14.0009 3.9161-4.1466 8.2928-7.8067 13.028-10.9806 4.7351-3.1739 9.8029-5.8102 15.1268-7.8323 5.3238-1.9965 10.9037-3.4299 16.7137-3.7114-4.53 3.6346-9.086 6.7061-13.5911 9.7776l-13.4375 8.9841-13.4631 8.9585c-4.5559 2.9691-9.1376 6.015-14.231 8.805z"/></g></svg>