<svg width="613" height="136" viewBox="0 0 613 136" fill="none" xmlns="http://www.w3.org/2000/svg">
<path d="M0.229492 135.479C17.0968 128.235 34.348 135.121 51.2921 129.259C63.6802 124.985 73.3295 113.108 85.0266 104.738C95.0343 97.5716 103.123 101.718 112.644 106.709C124.341 112.878 128.743 95.1656 138.853 93.1179C144.51 91.9661 151.728 82.6493 158.331 81.5486C164.449 80.5248 170.464 84.5945 175.429 76.5063C176.709 74.4074 176.811 58.1284 179.499 52.5229C182.34 46.6103 185.949 43.5901 189.43 42.1823C198.542 38.4965 222.678 4.27492 230.894 9.8548C244.152 18.8645 259.023 25.4171 272.973 28.7445C291.248 33.0958 285.284 60.944 303.687 51.7807C321.117 43.1038 347.327 -0.153167 366.267 0.000407913C387.588 0.153983 384.747 28.7956 405.735 20.4514C426.518 12.2096 423.626 37.6262 437.857 63.4779C451.039 87.4356 470.952 69.9281 485.72 74.177C502.152 78.9123 516.69 99.6704 533.558 103.971C545.485 107.016 557.566 104.585 569.366 110.113C584.364 117.152 597.367 131.128 613.005 131.844H585.593L0.229492 135.428V135.479Z" fill="#654964"/>
</svg>
