<svg fill="none" height="98" viewBox="0 0 1920 98" width="1920" xmlns="http://www.w3.org/2000/svg"><path d="m1920 97.5c-68.5-22.9984-92-65-170.5-97.5-32 1.5-102.63-.00524425-142.22 9.49999-69.12 0-78.09 2.43351-157.28 11.50001-38.51 1.5366-52.55 4.067-90 6.5-43.85 2.8683-67 4.9999-115.5 4.9999-57-5.5-14.5-2.9999-82.5-2.9999-43.78 0-54.32-5.5563-83-7.0417-55.47-2.8939-36.64-4.0022-91.865 0-33.303 2.4134-36.596-3.172-70.635-1.6712-41.5 5-83.5 9.9999-120.5 15.4999-44.5 5-127 16.4385-169 20.7129-41 4.1727-211.5 9-252 9-30.5-1.5-77.5-.5-107.897-1.0182-44.103-.7519-29.103-1.4818-75.603-1.4818l-191.50010681 33.9999z" fill="#120b2f"/></svg>