<svg fill="none" height="600" viewBox="0 0 386 600" width="386" xmlns="http://www.w3.org/2000/svg" xmlns:xlink="http://www.w3.org/1999/xlink"><clipPath id="a"><path d="m0 0h409.52v600h-409.52z" transform="matrix(-1 0 0 1 385.52 0)"/></clipPath><clipPath id="b"><path d="m0 0h409.52v600h-409.52z" transform="matrix(-1 0 0 1 385.52 0)"/></clipPath><clipPath id="c"><path d="m0 0h409.524v600h-409.524z" transform="matrix(-1 0 0 1 385.522 0)"/></clipPath><g clip-path="url(#a)"><g clip-path="url(#b)"><g clip-path="url(#c)" fill="#120b2f"><path d="m172.529 173.605s55.986 71.225 13.945 167.211c0 0 3.334-11.496 3.878-22.925 0 0-2.721 10.612-33.878 50.953 0 0 1.769-53.13 14.286-76.259 0 0-3.741 10.272-11.36 16.871 0 0 12.789-19.116 15.442-40.068 0 0-2.109 9.796-9.252 20.136 0 0 1.088-22.245 7.687-43.742 0 0-4.218 8.98-6.19 14.218 0 0-.749-35.646 4.694-48.775 0 0-2.994 4.149-5.035 8.299 0 0 .817-27.619 5.783-45.919z"/><path d="m163.345 172.449c-25.578-5.986-52.857-7.143-77.8911.748-25.034 7.891-47.6871 25.578-57.9592 49.796-3.4694 8.163-5.5102 17.075-4.8299 25.919.7483 8.843 4.4218 17.619 10.9524 23.673-5.6463-9.116-7.2789-20.476-4.3538-30.816.8844 6.054 3.8776 12.245 8.1633 16.53-5.9864-10.884-6.1905-24.489-.2721-35.374-.7483 12.041 1.9047 24.15 8.0952 34.49-2.7891-4.49-.3401-10.748 3.2653-14.626 3.6055-3.877 8.4354-6.462 12.1089-10.34 5.5782-5.85 7.9592-14.014 10.7483-21.701 2.7891-7.619 6.5986-15.51 13.7415-19.387-4.4898 6.938-7.6191 14.966-9.2517 23.129 2.2449-7.959 7.687-14.558 14.8299-18.64-2.3129 5.102-4.6939 10.204-7.0748 15.306 10.4762-6.53 20.9528-13.038 31.4288-19.523 2.993-1.905 6.122-3.81 9.66-3.946 7.347-.204 12.993 7.279 20.272 7.959 5.306.476 10.204-2.789 14.217-6.326 4.014-3.47 7.892-7.551 12.994-9.116-1.905-3.877-4.694-6.735-8.912-7.755z"/><path d="m183.073 175.238c35.646 8.367 68.776 27.415 94.014 54.014 11.904 12.517 22.245 27.142 26.53 43.877 5.238 20.068 1.157 41.973-8.979 60.068s-25.987 32.653-43.742 43.334c9.66-6.531 17.415-15.919 23.674-25.715-4.898 4.966-11.293 8.98-18.028 11.021 12.381-11.701 21.293-27.007 25.783-43.47-4.83 9.796-12.041 18.844-20.681 25.579 9.184-11.633 14.082-26.599 13.674-41.429-2.585 5.646-6.191 10.884-10.34 15.51 2.041-3.673 3.877-9.388 4.217-13.605-6.938 7.075-14.557 13.401-22.857 18.775 8.912-17.007 9.932-38.299 2.313-55.918-1.292 3.333-1.904 6.667-3.197 9.932 2.925-5.646 1.497-12.313-.544-18.368-2.109-5.986-5.306-11.564-7.075-17.687-1.837-6.054-1.973-13.129 1.701-18.299-4.422 4.626-7.483 10.612-8.368 16.939.885-3.606-2.177-6.667-4.83-9.252-8.027-7.664-16.031-15.306-24.013-22.925 0 1.224.408 2.177.408 3.401-6.735-7.347-12.993-14.557-19.252-22.313-1.632-1.972-3.265-4.013-4.013-6.462-.817-2.381-.613-5.306 1.156-7.211.68.136 1.769 0 2.449.204z"/><path d="m172.869 166.735c-28.367-34.218-67.619-59.388-110.5443-70.8847 5.9864 1.3606 11.4286 4.8297 16.1225 8.7757-12.585-5.7825-28.0272-4.9661-40.068 1.905 12.2449 18.027 35.4421 27.959 57.0068 24.762-3.8776 1.428-7.8232 2.312-11.6327 3.809 8.6395 2.041 17.6187 2.585 26.5307 1.701-5.986.884-11.9048 1.632-17.9593 1.428 12.0413 7.619 25.7823 13.402 39.6603 16.667-5.443-1.156-9.456-1.497-14.966-2.653 20.544 14.422 43.197 25.374 66.938 33.537-2.857-7.075-6.258-13.129-11.088-18.979z"/><path d="m172.393 177.687c22.041-13.129 44.285-26.258 68.095-35.918 23.809-9.728 49.388-15.919 75.034-14.694 25.714 1.224 51.497 10.408 70 28.163-16.327-6.939-33.674-9.864-51.225-7.211 13.062-1.973 25.511.612 37.075 6.939-7.279-3.333-16.054-.612-23.469 2.381-7.415 3.061-15.034 6.871-23.061 6.326-9.524-.68-17.823-7.346-27.347-7.891 9.047 2.381 17.483 5.919 25.646 10.545-7.347-.545-14.626 2.721-21.633 4.965-16.394 5.103-34.081 5.783-50.748 1.837 4.762 1.973 9.592 3.878 14.354 5.851-12.857-3.742-26.327-5.17-39.66-4.082 3.946 1.565 7.959 2.857 11.973 4.422-22.517 2.313-42.585.884-65.034-1.633z"/><path d="m175.182 177.347c.68-.272 1.156-1.701 1.36-4.49.681-8.979.613-18.027-.136-26.939-1.496-18.231-5.782-36.19-12.789-52.9928-11.156-27.0749-29.319-51.2245-52.109-69.5919 2.109 2.8572 4.49 5.4422 6.599 8.2993-12.653-9.3197-25.9864-15.102-40.8163-20.136 4.2857 13.1292 9.3878 25.8503 15.9184 37.9592 6.4625 12.1768 15.3739 23.3333 27.0749 30.6122-2.653-1.0884-5.238-1.7687-7.891-2.8571 5.918 5.3741 12.381 10.068 19.456 13.8775-5.783-3.9456-11.837-6.8027-18.232-9.6598 6.599 7.0068 10.544 15.9183 15.17 24.3534 4.558 8.436 10 16.871 18.164 21.905-4.014-3.537-8.164-6.463-12.245-10 4.489 11.293 10.476 21.973 17.755 31.701 3.605 4.898 7.619 9.524 11.836 13.945 2.858 2.926 4.762 6.463 6.871 9.932 1.701 2.857 3.129 4.558 4.014 4.082z"/><path d="m169.059 179.932c14.286-17.551 26.871-36.803 34.49-58.163 7.551-21.293 9.932-44.8982 3.946-66.735-7.075-25.7823-27.483-49.86393-54.626-55.034 10.068 5.5102 17.891 14.2857 22.721 24.6259-.476-1.9728-2.041-3.6735-4.014-4.2858 3.47 15.2381 6.191 30.6803 7.892 46.2585-1.157-2.2449-2.177-4.4217-3.334-6.6666.817 9.3197.816 18.7075.136 28.0272-1.837-3.4014-4.422-6.4626-7.687-8.5715 8.776 14.5579 10.953 32.2453 9.456 49.1833-1.497 16.939-4.014 35.102-8.98 51.361z"/><path d="m170.556 184.83c7.755-27.551 21.565-53.469 40.068-75.374 10-11.7689 21.497-22.5852 35.102-30.0002 13.605-7.4149 29.456-11.2925 44.762-9.0476 22.993 3.3333 43.061 21.4966 48.775 44.0138-4.149-6.463-10.408-13.265-16.87-17.4832 2.177 3.1972 3.945 7.1432 4.898 10.8842-6.599-5.17-14.014-8.0951-22.177-10.0679 7.075 2.7889 13.197 7.1429 18.503 12.6529-11.224-7.347-24.694-10.476-38.095-9.932 5.85 1.633 11.224 5.238 15.646 9.388-7.619-4.15-16.666-4.626-25.034-2.721 3.47 2.109 6.395 4.83 8.844 8.095-16.667-6.599-36.463-4.83-51.837 4.354 11.292-1.905 22.857-2.041 34.15.136-10.068-.884-19.116 5.442-27.075 11.633-7.959 6.19-16.327 12.925-26.395 13.605 2.993 1.02 6.055 1.769 9.116 1.293-19.116 10.748-37.483 22.381-52.449 38.571z"/><path d="m175.182 177.347s-110.5443 158.503-172.04095 536.19l-57.68715-22.312s94.0817-332.177 227.0751-517.62l2.721 3.742z"/><path d="m136.814 431.837s15.783 32.313-8.503 65.986c0 0 2.245-4.15 3.401-8.571 0 0-1.904 3.877-17.415 16.938 0 0 5.17-20.476 11.905-28.367 0 0-2.313 3.606-5.782 5.578 0 0 6.53-6.326 9.32-14.217 0 0-1.633 3.605-5.239 7.006 0 0 2.245-8.503 6.599-16.326 0 0-2.381 3.129-3.605 5.034 0 0 2.721-13.946 5.918-18.572 0 0-1.497 1.361-2.653 2.858 0 0 2.653-10.681 6.054-17.347z"/><path d="m132.665 430.748c-9.456-4.49-19.864-7.211-30.272-6.19-10.4084.952-20.6125 5.918-26.5989 14.422-2.0408 2.857-3.6054 6.19-4.0816 9.659-.4082 3.47.2721 7.211 2.3129 10.068-1.4286-4.013-1.1565-8.503.8844-12.312-.2041 2.449.4762 5.034 1.7687 7.074-1.4286-4.694-.3402-10 2.8571-13.741-1.2925 4.626-1.2925 9.524.2721 14.081-.7483-1.972.7483-4.217 2.449-5.374 1.7687-1.224 3.8095-1.836 5.5782-2.993 2.6531-1.837 4.2177-4.762 5.9864-7.551 1.7007-2.721 3.8776-5.442 6.9387-6.394-2.3808 2.312-4.2176 5.17-5.5101 8.231 1.4966-2.925 4.1497-5.034 7.2791-5.987-1.361 1.769-2.6532 3.538-4.0138 5.307 4.5808-1.633 9.1838-3.266 13.8098-4.898 1.292-.477 2.721-1.021 4.081-.749 2.858.545 4.422 3.946 7.143 4.762 2.041.68 4.218-.204 6.055-1.224 1.836-1.021 3.741-2.245 5.85-2.449-.476-1.633-1.293-2.993-2.857-3.742z"/><path d="m140.08 433.469c13.129 6.191 24.422 16.327 31.973 28.776 3.537 5.85 6.326 12.381 6.598 19.184.34 8.231-3.061 16.394-8.503 22.585-5.442 6.19-12.789 10.476-20.544 13.129 4.285-1.701 8.027-4.694 11.292-8.027-2.313 1.564-5.17 2.585-7.891 2.789 5.782-3.47 10.544-8.708 13.605-14.694-2.653 3.401-6.19 6.326-10.136 8.231 4.558-3.741 7.687-9.115 8.776-14.966-1.497 1.973-3.333 3.742-5.306 5.17 1.088-1.292 2.313-3.333 2.721-4.898-3.265 2.109-6.735 3.946-10.408 5.374 4.898-5.85 7.074-14.013 5.578-21.496-.816 1.156-1.293 2.381-2.109 3.537 1.633-1.904 1.633-4.626 1.361-7.143-.273-2.449-1.089-4.898-1.293-7.415-.136-2.517.408-5.238 2.245-7.006-2.109 1.428-3.81 3.537-4.694 5.918.68-1.361-.272-2.789-1.088-4.014-2.449-3.605-4.966-7.279-7.415-10.884-.136.476 0 .884-.136 1.361-2.041-3.402-3.81-6.735-5.579-10.273-.476-.884-.952-1.836-1.02-2.789-.136-1.02.204-2.177 1.02-2.721.273.136.681.136.953.272z"/><path d="m136.814 429.32c-8.095-15.647-21.224-28.708-36.9383-36.735 2.2453 1.02 4.0133 2.857 5.5783 4.762-4.422-3.333-10.4763-4.286-15.7144-2.653 3.2653 8.027 11.4284 13.809 20.0004 14.354-1.565.272-3.198.272-4.83.544 3.197 1.496 6.666 2.449 10.204 2.857-2.449-.136-4.762-.34-7.143-.952 4.082 3.945 8.911 7.346 14.014 9.795-2.041-.952-3.538-1.36-5.579-2.312 6.803 7.278 14.626 13.401 23.13 18.571-.477-2.993-1.293-5.578-2.722-8.299z"/><path d="m133.209 429.184c10.136 0 20.408.136 30.476 1.632 10.068 1.565 20.068 4.694 28.572 10.34 8.435 5.647 15.374 14.014 18.027 23.81-4.15-5.646-9.456-10.204-15.919-12.857 4.83 1.973 8.572 5.374 11.225 9.932-1.837-2.653-5.374-3.538-8.503-4.014-3.13-.476-6.531-.748-9.116-2.517-3.129-2.177-4.626-6.122-7.755-8.299 2.585 2.653 4.762 5.578 6.598 8.843-2.381-1.7-5.51-2.04-8.367-2.721-6.599-1.564-12.789-4.966-17.619-9.728 1.225 1.633 2.449 3.266 3.674 4.898-3.606-3.877-7.892-7.075-12.654-9.455 1.021 1.36 2.109 2.585 3.13 3.945-8.096-3.809-14.626-8.367-21.769-13.809z"/><path d="m138.311 434.49c.272-.068.544-.544.884-1.633.998-3.447 1.724-6.939 2.177-10.476.953-7.143.817-14.49-.476-21.633-2.109-11.428-7.143-22.313-14.422-31.292.545 1.292 1.293 2.449 1.837 3.741-4.082-4.626-8.775-8.027-14.15-11.156.613 5.374 1.497 10.748 2.994 15.986 1.496 5.238 4.013 10.34 7.959 14.15-.953-.68-1.905-1.157-2.789-1.769 1.836 2.585 3.945 4.966 6.326 7.007-1.905-2.041-3.945-3.674-6.258-5.306 1.972 3.265 2.789 7.075 3.877 10.748 1.089 3.674 2.449 7.347 5.238 10-1.292-1.701-2.653-3.197-3.945-4.898.816 4.762 2.245 9.388 4.285 13.742.953 2.245 2.109 4.353 3.402 6.394.816 1.361 1.292 2.925 1.837 4.49.408 1.224.816 1.973 1.224 1.905z"/><path d="m135.454 435.374c7.007-5.578 13.469-11.973 18.163-19.66 4.762-7.619 7.687-16.598 7.143-25.578-.612-10.544-6.462-21.565-16.531-25.85 3.402 2.993 5.715 7.006 6.735 11.428-.068-.816-.476-1.564-1.224-1.973.068 6.191-.136 12.381-.817 18.572-.272-.953-.476-1.905-.748-2.857-.408 3.673-1.224 7.347-2.245 10.884-.476-1.497-1.156-2.857-2.245-3.946 2.177 6.395 1.497 13.402-.476 19.864-2.041 6.395-4.49 13.266-7.755 19.116z"/><path d="m136.61 438.231c5.307-10 12.79-18.911 21.837-25.85 4.83-3.742 10.204-6.939 16.123-8.708 5.85-1.7 12.313-1.904 18.095.205 8.639 3.265 14.898 11.972 15.238 21.156-1.088-2.857-2.925-5.986-5.102-8.163.544 1.428.952 3.061 1.02 4.626-2.177-2.585-4.762-4.286-7.755-5.783 2.517 1.701 4.49 3.946 6.123 6.463-3.742-3.742-8.708-6.123-13.946-7.007 2.109 1.088 3.878 2.925 5.306 4.898-2.653-2.245-6.122-3.129-9.524-3.129 1.157 1.088 2.109 2.381 2.79 3.877-5.919-3.945-13.742-4.898-20.477-2.585 4.558.136 9.048 1.089 13.198 2.857-3.81-1.156-7.824.545-11.429 2.245-3.605 1.701-7.415 3.674-11.36 3.062 1.088.612 2.176 1.224 3.401 1.292-8.299 2.585-16.395 5.51-23.538 10.544z"/><path d="m146.066 424.898s-100.2039 93.265-199.1155 345.578l-36.6666-24.013s114.7619-215.987 234.4901-324.558z"/></g></g></g></svg>