<svg width="1439" height="69" viewBox="0 0 1439 69" fill="none" xmlns="http://www.w3.org/2000/svg">
<path d="M1439 0C1393.33 15.3323 1339.33 31.8086 1316 40.8086C1297 40.8086 1223.89 33.3368 1197.5 27C1151.42 27 1159.79 66.0443 1107 60C1081.33 58.9756 1014.47 28.6219 989.5 27C960.267 25.0878 969.833 50.0278 937.5 50.0278C899.5 53.6945 897 45.3333 851.667 45.3333C822.48 45.3333 815.453 49.0375 796.333 50.0278C759.353 51.9571 771.907 52.6959 735.09 50.0278C712.888 48.4188 651.693 69.5005 629 68.5C601.333 65.1667 551.167 44.4752 526.5 40.8086C496.833 37.4752 523 29.8496 495 27C386 50.0278 354 21 327 21C306.667 22 243.265 40.4631 223 40.8086C193.598 41.3098 168.5 27 137.5 27L-2 0H1439Z" fill="#9163BF"/>
</svg>
