<svg fill="none" height="69" viewBox="0 0 1439 69" width="1439" xmlns="http://www.w3.org/2000/svg"><path d="m-2 0c45.6666 15.3323 99.6666 31.8086 123 40.8086 19 0 92.107-7.4718 118.5-13.8086 46.08 0 37.707 39.0443 90.5 33 25.673-1.0244 92.533-31.3781 117.5-33 29.233-1.9122 19.667 23.0278 52 23.0278 38 3.6667 40.5-4.6945 85.833-4.6945 29.187 0 36.214 3.7042 55.334 4.6945 36.98 1.9293 24.426 2.6681 61.243 0 22.202-1.609 83.397 19.4727 106.09 18.4722 27.667-3.3333 77.833-24.0248 102.5-27.6914 29.667-3.3334 3.5-10.959 31.5-13.8086 109 23.0278 141-6 168-6 20.33 1 83.74 19.4631 104 19.8086 29.4.5012 54.5-13.8086 85.5-13.8086l139.5-27z" fill="#23113b"/></svg>