<svg fill="none" height="69" viewBox="0 0 1440 69" width="1440" xmlns="http://www.w3.org/2000/svg"><path d="m1441 69c-45.7-20.438-99.74-42.401-123.09-54.398-19.01 0-92.17 9.9599-118.58 18.4069-46.11 0-74.26-26.464-127.09-18.4069-25.69 1.3655-56.07 16.2449-81.052 18.4069-29.254 2.549-50.201-11.3767-82.557-11.3767-38.027-4.8877-10.007-13.06167-55.372-13.06167-29.207 0-36.239-4.93772-55.372-6.25775-37.005-2.571714-24.443-3.55663-61.286 0-22.217 2.14481-59.938-1.333707-82.647 0-27.686 4.44335-64.878 14.43172-89.562 19.31942-29.687 4.4433-46.532 7.5782-74.552 11.3767-109.075-30.69612-153.606 9.9513-180.625 9.9513-20.347-1.333-94.301-9.4908-114.579-9.9513-29.423-.6682-78.555 18.6158-109.5763 18.6158l-86.0597 17.3753z" fill="#130a26"/></svg>