<svg width="1078" height="477" viewBox="0 0 1078 477" fill="none" xmlns="http://www.w3.org/2000/svg">
<path fill-rule="evenodd" clip-rule="evenodd" d="M756.954 450.051C756.954 450.051 782.524 314.598 782.14 270.24C781.833 233.894 768.139 125.547 768.139 125.547L786.414 97.2129C786.414 97.2129 798.188 227.521 797.497 271.059C796.806 314.598 780.527 447.926 780.527 447.926L756.954 450.076V450.051Z" fill="url(#paint0_linear_117_64)"/>
<path fill-rule="evenodd" clip-rule="evenodd" d="M786.414 97.1873L894.144 102.537C894.144 102.537 867.756 204.92 867.833 270.215C867.935 353.913 913.187 436.895 913.187 436.895L774.947 447.901C774.947 447.901 796.755 316.441 797.471 272.621C798.188 228.801 786.414 97.1873 786.414 97.1873Z" fill="#9587A7"/>
<path fill-rule="evenodd" clip-rule="evenodd" d="M334.018 453.43L312.646 129.95L396.163 118.713L409.729 457.986L334.018 453.43Z" fill="url(#paint1_linear_117_64)"/>
<path fill-rule="evenodd" clip-rule="evenodd" d="M831.922 460.699V330.979L914.058 327.063L909.783 460.699H831.922Z" fill="#9587A7"/>
<path fill-rule="evenodd" clip-rule="evenodd" d="M270.849 476.568L262.479 357.343L376.43 342.139V433.388H386.36V386.727L430.436 380.123L432.483 461.671H444.564L424.139 16.5861L510.369 0L532.97 47.685V448.592L541.186 451.356L540.725 204.254L581.908 148.609V24.8791L584.084 148.968L629.004 222.453L626.623 347.437L660.102 350.432V453.429L669.393 452.738L678.07 277.177L753.012 279.25L745.59 461.671H756.673V447.901L964.839 436.485L976.664 472.473L270.849 476.568Z" fill="url(#paint2_linear_117_64)"/>
<path fill-rule="evenodd" clip-rule="evenodd" d="M270.849 472.191L13.2839 468.941L0 351.2L242.361 328.983L233.966 466.458L270.849 472.191Z" fill="url(#paint3_linear_117_64)"/>
<path fill-rule="evenodd" clip-rule="evenodd" d="M976.664 473.701V234.33L1008.27 203.205H1077.02L1055.96 475.34L976.664 473.701Z" fill="#9587A7"/>
<path fill-rule="evenodd" clip-rule="evenodd" d="M1008.27 203.205L1000.83 474.188L976.664 473.701V234.33L1008.27 203.205Z" fill="url(#paint4_linear_117_64)"/>
<path style="mix-blend-mode:multiply" opacity="0.49" fill-rule="evenodd" clip-rule="evenodd" d="M1008.27 468.992L1018.18 203.205H1023.14L1010.76 468.992H1008.27Z" fill="url(#paint5_linear_117_64)"/>
<path style="mix-blend-mode:multiply" opacity="0.49" fill-rule="evenodd" clip-rule="evenodd" d="M1046.97 468.992L1067.73 203.205H1071.9L1048.69 468.992H1046.97Z" fill="url(#paint6_linear_117_64)"/>
<path fill-rule="evenodd" clip-rule="evenodd" d="M678.069 277.177L660.741 297.909L657.414 474.188L673.053 474.239L678.069 277.177Z" fill="url(#paint7_linear_117_64)"/>
<path fill-rule="evenodd" clip-rule="evenodd" d="M540.725 204.254L532.97 209.45V448.592L541.186 451.356L540.725 204.254Z" fill="#9587A7"/>
<path fill-rule="evenodd" clip-rule="evenodd" d="M396.163 118.713L429.642 136.733L444.564 461.671H432.483L430.435 380.123L406.76 383.681L396.163 118.713Z" fill="#9587A7"/>
<path fill-rule="evenodd" clip-rule="evenodd" d="M376.43 342.139L396.164 346.285V385.268L386.361 386.727L389.304 475.877L376.43 475.954V342.139Z" fill="#9587A7"/>
<path fill-rule="evenodd" clip-rule="evenodd" d="M242.362 328.983L292.323 339.656L292.119 468.198L233.966 466.458L242.362 328.983Z" fill="#9587A7"/>
<path fill-rule="evenodd" clip-rule="evenodd" d="M510.369 0L521.375 451.356H541.186L540.725 204.254L532.97 209.45V47.685L510.369 0Z" fill="#9587A7"/>
<path fill-rule="evenodd" clip-rule="evenodd" d="M321.656 266.196L401.564 253.475V259.849L322.04 271.981L321.656 266.196Z" fill="#FFDB79"/>
<path fill-rule="evenodd" clip-rule="evenodd" d="M325.981 331.977L404.226 320.203L404.456 326.09L326.109 333.948L325.981 331.977Z" fill="#FFDB79"/>
<path fill-rule="evenodd" clip-rule="evenodd" d="M581.908 148.609L584.084 474.188H585.568L584.084 148.968L581.908 148.609Z" fill="#FFDB79"/>
<path fill-rule="evenodd" clip-rule="evenodd" d="M713.365 278.149L707.146 474.034H708.144L715.234 278.201L713.365 278.149Z" fill="#FFDB79"/>
<path fill-rule="evenodd" clip-rule="evenodd" d="M598.187 342.139V474.7L584.084 474.188L579.528 348.717L598.187 342.139Z" fill="url(#paint8_linear_117_64)"/>
<path fill-rule="evenodd" clip-rule="evenodd" d="M432.969 14.8967L452.012 451.356L514.26 446.698L504.841 1.07495L432.969 14.8967Z" fill="url(#paint9_linear_117_64)"/>
<path fill-rule="evenodd" clip-rule="evenodd" d="M598.187 342.139L660.101 350.432V474.239L598.187 474.7V342.139Z" fill="#9587A7"/>
<path fill-rule="evenodd" clip-rule="evenodd" d="M581.908 148.609L532.97 209.45H541.186L581.908 148.609Z" fill="#9587A7"/>
<path fill-rule="evenodd" clip-rule="evenodd" d="M759.488 447.901L748.329 451.356V473.727L759.488 473.676V447.901Z" fill="#9587A7"/>
<path fill-rule="evenodd" clip-rule="evenodd" d="M831.922 330.979L819.637 345.595L821.608 447.159L831.922 446.058V330.979Z" fill="url(#paint10_linear_117_64)"/>
<path fill-rule="evenodd" clip-rule="evenodd" d="M433.583 30.9966L459.87 23.7529V125.522H437.704L433.583 30.9966Z" fill="#F4FDF6"/>
<path fill-rule="evenodd" clip-rule="evenodd" d="M466.064 78.1951L463.274 32.8649L477.198 28.053L476.635 76.301L466.064 78.1951Z" fill="#F4FDF6"/>
<path fill-rule="evenodd" clip-rule="evenodd" d="M327.978 248.151L314.822 141.365H352.293V232.947L327.978 248.151Z" fill="#F4FDF6"/>
<g style="mix-blend-mode:soft-light">
<path fill-rule="evenodd" clip-rule="evenodd" d="M262.479 357.343L270.849 472.191L292.119 468.198V353.401L262.479 357.343Z" fill="#FFBF70"/>
</g>
<g style="mix-blend-mode:soft-light">
<path fill-rule="evenodd" clip-rule="evenodd" d="M336.808 405.232L334.018 358.571L352.293 354.937L348.889 405.232H336.808Z" fill="#FFBF70"/>
</g>
<path opacity="0.71" fill-rule="evenodd" clip-rule="evenodd" d="M429.642 136.733L514.26 187.156L521.887 474.7H432.867L432.483 461.671H444.564L429.642 136.733Z" fill="#9587A7"/>
<path opacity="0.71" fill-rule="evenodd" clip-rule="evenodd" d="M386.36 386.727L401.564 384.449L412.979 475.749L389.304 475.877L386.36 386.727Z" fill="#9587A7"/>
<path opacity="0.71" fill-rule="evenodd" clip-rule="evenodd" d="M976.664 339.272L992.661 336.098L989.001 473.957L976.664 473.701V339.272Z" fill="#9587A7"/>
<path style="mix-blend-mode:multiply" opacity="0.49" fill-rule="evenodd" clip-rule="evenodd" d="M843.031 349.613L857.748 349.05L856.878 440.452L844.054 443.601L843.031 349.613Z" fill="url(#paint11_linear_117_64)"/>
<path style="mix-blend-mode:multiply" opacity="0.49" fill-rule="evenodd" clip-rule="evenodd" d="M886.031 346.669H899.724L898.828 440.376L886.031 441.195V346.669Z" fill="url(#paint12_linear_117_64)"/>
<path style="mix-blend-mode:multiply" opacity="0.49" fill-rule="evenodd" clip-rule="evenodd" d="M678.069 306.996L751.707 311.398L751.349 320.203H676.969L678.069 306.996Z" fill="url(#paint13_linear_117_64)"/>
<path style="mix-blend-mode:multiply" opacity="0.49" fill-rule="evenodd" clip-rule="evenodd" d="M676.406 342.139L750.529 340.014L750.171 349.05L676.175 351.481L676.406 342.139Z" fill="url(#paint14_linear_117_64)"/>
<path style="mix-blend-mode:multiply" opacity="0.49" fill-rule="evenodd" clip-rule="evenodd" d="M675.408 381.889H748.841L748.354 393.945L675.408 391.564V381.889Z" fill="url(#paint15_linear_117_64)"/>
<path style="mix-blend-mode:multiply" opacity="0.49" fill-rule="evenodd" clip-rule="evenodd" d="M674.486 417.851H747.381L746.869 430.163L674.486 432.339V417.851Z" fill="url(#paint16_linear_117_64)"/>
<path fill-rule="evenodd" clip-rule="evenodd" d="M786.414 97.1873L794.528 219.407L779.324 223.989L768.139 122.399L786.414 97.1873Z" fill="#F4FDF6"/>
<path fill-rule="evenodd" clip-rule="evenodd" d="M976.664 244.747L987.9 230.541V271.981L976.664 278.149V244.747Z" fill="#F4FDF6"/>
<path fill-rule="evenodd" clip-rule="evenodd" d="M42.1296 453.378L14.1284 392.204L25.0833 369.68L43.5886 384.73L42.1296 453.378Z" fill="#F4FDF6"/>
<path fill-rule="evenodd" clip-rule="evenodd" d="M63.8598 446.263L43.6396 385.114L56.7188 364.254L73.8164 381.582L63.8598 446.263Z" fill="#F4FDF6"/>
<path fill-rule="evenodd" clip-rule="evenodd" d="M94.037 443.857L74.0215 381.275L87.1262 360.414L104.198 377.743L94.037 443.857Z" fill="#F4FDF6"/>
<path fill-rule="evenodd" clip-rule="evenodd" d="M126.799 434.207L104.224 377.333L115.153 354.809L133.684 369.859L126.799 434.207Z" fill="#F4FDF6"/>
<path fill-rule="evenodd" clip-rule="evenodd" d="M150.526 434.207L133.709 370.243L146.814 349.383L163.886 366.711L150.526 434.207Z" fill="#F4FDF6"/>
<path fill-rule="evenodd" clip-rule="evenodd" d="M176.172 437.023L163.886 366.711L181.88 346.03L199.233 363.281L176.172 437.023Z" fill="#F4FDF6"/>
<path fill-rule="evenodd" clip-rule="evenodd" d="M198.389 441.246L199.233 363.281L216.203 351.405L229.385 367.121L198.389 441.246Z" fill="#F4FDF6"/>
<path fill-rule="evenodd" clip-rule="evenodd" d="M63.5786 346.03L108.37 310.119L170.823 336.201L63.5786 346.03Z" fill="url(#paint17_linear_117_64)"/>
<path fill-rule="evenodd" clip-rule="evenodd" d="M108.37 310.119L143.896 312.525L198.389 336.201H170.823L108.37 310.119Z" fill="#9587A7"/>
<path fill-rule="evenodd" clip-rule="evenodd" d="M86.6397 338.453L73.8164 341.729L108.908 312.499L86.6397 338.453Z" fill="#F4FDF6"/>
<path fill-rule="evenodd" clip-rule="evenodd" d="M43.5888 384.73L42.1299 453.378L25.0835 369.68L43.5888 384.73Z" fill="url(#paint18_linear_117_64)"/>
<path fill-rule="evenodd" clip-rule="evenodd" d="M75.2497 379.304L63.8598 446.263L56.7188 364.254L75.2497 379.304Z" fill="url(#paint19_linear_117_64)"/>
<path fill-rule="evenodd" clip-rule="evenodd" d="M104.198 377.743L94.0367 443.857L87.126 360.414L104.198 377.743Z" fill="url(#paint20_linear_117_64)"/>
<path fill-rule="evenodd" clip-rule="evenodd" d="M133.684 369.859L126.799 434.207L115.153 354.809L133.684 369.859Z" fill="url(#paint21_linear_117_64)"/>
<path fill-rule="evenodd" clip-rule="evenodd" d="M163.886 366.89L150.526 434.207L146.814 349.383L163.886 366.89Z" fill="url(#paint22_linear_117_64)"/>
<path fill-rule="evenodd" clip-rule="evenodd" d="M199.233 363.537L176.172 437.023L182.161 346.03L199.233 363.537Z" fill="url(#paint23_linear_117_64)"/>
<path fill-rule="evenodd" clip-rule="evenodd" d="M229.385 367.121L198.389 441.246L216.203 351.405L229.385 367.121Z" fill="url(#paint24_linear_117_64)"/>
<defs>
<linearGradient id="paint0_linear_117_64" x1="777.251" y1="450.051" x2="777.251" y2="97.1873" gradientUnits="userSpaceOnUse">
<stop stop-color="#F4A2A5"/>
<stop offset="1" stop-color="#F6D0C4"/>
</linearGradient>
<linearGradient id="paint1_linear_117_64" x1="375.508" y1="463.898" x2="354.314" y2="122.527" gradientUnits="userSpaceOnUse">
<stop stop-color="#F4A2A5"/>
<stop offset="1" stop-color="#F6D0C4"/>
</linearGradient>
<linearGradient id="paint2_linear_117_64" x1="617.716" y1="478.36" x2="631.512" y2="7.75553" gradientUnits="userSpaceOnUse">
<stop stop-color="#F4A2A5"/>
<stop offset="0.04" stop-color="#EB9BA6"/>
<stop offset="1" stop-color="#9D79B5"/>
</linearGradient>
<linearGradient id="paint3_linear_117_64" x1="134.605" y1="439.505" x2="160.765" y2="-452.687" gradientUnits="userSpaceOnUse">
<stop stop-color="#F4A2A5"/>
<stop offset="1" stop-color="#F6D0C4"/>
</linearGradient>
<linearGradient id="paint4_linear_117_64" x1="992.481" y1="474.188" x2="992.481" y2="203.205" gradientUnits="userSpaceOnUse">
<stop stop-color="#F4A2A5"/>
<stop offset="1" stop-color="#F6D0C4"/>
</linearGradient>
<linearGradient id="paint5_linear_117_64" x1="1015.72" y1="468.992" x2="1015.72" y2="203.205" gradientUnits="userSpaceOnUse">
<stop stop-color="white"/>
<stop offset="1" stop-color="#87A4D0"/>
</linearGradient>
<linearGradient id="paint6_linear_117_64" x1="1059.46" y1="-758.096" x2="1059.46" y2="-758.096" gradientUnits="userSpaceOnUse">
<stop stop-color="white"/>
<stop offset="1" stop-color="#87A4D0"/>
</linearGradient>
<linearGradient id="paint7_linear_117_64" x1="667.755" y1="474.239" x2="667.755" y2="277.177" gradientUnits="userSpaceOnUse">
<stop stop-color="#F4A2A5"/>
<stop offset="1" stop-color="#F6D0C4"/>
</linearGradient>
<linearGradient id="paint8_linear_117_64" x1="588.844" y1="474.7" x2="588.844" y2="342.139" gradientUnits="userSpaceOnUse">
<stop stop-color="#F4A2A5"/>
<stop offset="1" stop-color="#F6D0C4"/>
</linearGradient>
<linearGradient id="paint9_linear_117_64" x1="473.615" y1="451.356" x2="473.615" y2="1.07495" gradientUnits="userSpaceOnUse">
<stop stop-color="#F4A2A5"/>
<stop offset="1" stop-color="#F6D0C4"/>
</linearGradient>
<linearGradient id="paint10_linear_117_64" x1="825.78" y1="447.159" x2="825.78" y2="330.979" gradientUnits="userSpaceOnUse">
<stop stop-color="#F4A2A5"/>
<stop offset="1" stop-color="#F6D0C4"/>
</linearGradient>
<linearGradient id="paint11_linear_117_64" x1="850.402" y1="443.601" x2="850.402" y2="349.05" gradientUnits="userSpaceOnUse">
<stop stop-color="white"/>
<stop offset="1" stop-color="#87A4D0"/>
</linearGradient>
<linearGradient id="paint12_linear_117_64" x1="892.89" y1="441.195" x2="892.89" y2="346.669" gradientUnits="userSpaceOnUse">
<stop stop-color="white"/>
<stop offset="1" stop-color="#87A4D0"/>
</linearGradient>
<linearGradient id="paint13_linear_117_64" x1="713.749" y1="468.941" x2="714.44" y2="289.923" gradientUnits="userSpaceOnUse">
<stop stop-color="white"/>
<stop offset="1" stop-color="#87A4D0"/>
</linearGradient>
<linearGradient id="paint14_linear_117_64" x1="712.904" y1="468.608" x2="713.596" y2="290.102" gradientUnits="userSpaceOnUse">
<stop stop-color="white"/>
<stop offset="1" stop-color="#87A4D0"/>
</linearGradient>
<linearGradient id="paint15_linear_117_64" x1="711.804" y1="468.966" x2="712.495" y2="289.949" gradientUnits="userSpaceOnUse">
<stop stop-color="white"/>
<stop offset="1" stop-color="#87A4D0"/>
</linearGradient>
<linearGradient id="paint16_linear_117_64" x1="710.729" y1="468.864" x2="711.42" y2="290.231" gradientUnits="userSpaceOnUse">
<stop stop-color="white"/>
<stop offset="1" stop-color="#3FBFC0"/>
</linearGradient>
<linearGradient id="paint17_linear_117_64" x1="130.812" y1="354.39" x2="-171.155" y2="57.4494" gradientUnits="userSpaceOnUse">
<stop stop-color="#F4A2A5"/>
<stop offset="1" stop-color="#F6D0C4"/>
</linearGradient>
<linearGradient id="paint18_linear_117_64" x1="32.4293" y1="451.663" x2="34.8098" y2="370.678" gradientUnits="userSpaceOnUse">
<stop stop-color="#F4A2A5"/>
<stop offset="0.04" stop-color="#EB9BA6"/>
<stop offset="1" stop-color="#9D79B5"/>
</linearGradient>
<linearGradient id="paint19_linear_117_64" x1="63.8598" y1="444.855" x2="66.1891" y2="365.226" gradientUnits="userSpaceOnUse">
<stop stop-color="#F4A2A5"/>
<stop offset="0.04" stop-color="#EB9BA6"/>
<stop offset="1" stop-color="#9D79B5"/>
</linearGradient>
<linearGradient id="paint20_linear_117_64" x1="93.5248" y1="442.398" x2="95.9052" y2="361.413" gradientUnits="userSpaceOnUse">
<stop stop-color="#F4A2A5"/>
<stop offset="0.04" stop-color="#EB9BA6"/>
<stop offset="1" stop-color="#9D79B5"/>
</linearGradient>
<linearGradient id="paint21_linear_117_64" x1="122.371" y1="432.697" x2="124.623" y2="355.781" gradientUnits="userSpaceOnUse">
<stop stop-color="#F4A2A5"/>
<stop offset="0.04" stop-color="#EB9BA6"/>
<stop offset="1" stop-color="#9D79B5"/>
</linearGradient>
<linearGradient id="paint22_linear_117_64" x1="153.162" y1="432.825" x2="155.594" y2="350.381" gradientUnits="userSpaceOnUse">
<stop stop-color="#F4A2A5"/>
<stop offset="0.04" stop-color="#EB9BA6"/>
<stop offset="1" stop-color="#9D79B5"/>
</linearGradient>
<linearGradient id="paint23_linear_117_64" x1="186.666" y1="435.743" x2="189.277" y2="347.028" gradientUnits="userSpaceOnUse">
<stop stop-color="#F4A2A5"/>
<stop offset="0.04" stop-color="#EB9BA6"/>
<stop offset="1" stop-color="#9D79B5"/>
</linearGradient>
<linearGradient id="paint24_linear_117_64" x1="212.85" y1="440.094" x2="215.41" y2="352.173" gradientUnits="userSpaceOnUse">
<stop stop-color="#F4A2A5"/>
<stop offset="0.04" stop-color="#EB9BA6"/>
<stop offset="1" stop-color="#9D79B5"/>
</linearGradient>
</defs>
</svg>
