<svg version="1.2" xmlns="http://www.w3.org/2000/svg" viewBox="0 0 602 882" width="602" height="882">
	<title>palms-2-svg</title>
	<style>
		.s0 { fill: #120b2f } 
	</style>
	<path class="s0" d="m313.1 255.2c0 0-82.3 104.7-20.5 245.8 0 0-4.9-16.9-5.7-33.7 0 0 4 15.6 49.8 74.9 0 0-2.6-78.1-21-112.1 0 0 5.5 15.1 16.7 24.8 0 0-18.8-28.1-22.7-58.9 0 0 3.1 14.4 13.6 29.6 0 0-1.6-32.7-11.3-64.3 0 0 6.2 13.2 9.1 20.9 0 0 1.1-52.4-6.9-71.7 0 0 4.4 6.1 7.4 12.2 0 0-1.2-40.6-8.5-67.5z"/>
	<path class="s0" d="m326.6 253.5c37.6-8.8 77.7-10.5 114.5 1.1 36.8 11.6 70.1 37.6 85.2 73.2 5.1 12 8.1 25.1 7.1 38.1-1.1 13-6.5 25.9-16.1 34.8 8.3-13.4 10.7-30.1 6.4-45.3-1.3 8.9-5.7 18-12 24.3 8.8-16 9.1-36 0.4-52 1.1 17.7-2.8 35.5-11.9 50.7 4.1-6.6 0.5-15.8-4.8-21.5-5.3-5.7-12.4-9.5-17.8-15.2-8.2-8.6-11.7-20.6-15.8-31.9-4.1-11.2-9.7-22.8-20.2-28.5 6.6 10.2 11.2 22 13.6 34-3.3-11.7-11.3-21.4-21.8-27.4 3.4 7.5 6.9 15 10.4 22.5q-23.1-14.4-46.2-28.7c-4.4-2.8-9-5.6-14.2-5.8-10.8-0.3-19.1 10.7-29.8 11.7-7.8 0.7-15-4.1-20.9-9.3-5.9-5.1-11.6-11.1-19.1-13.4 2.8-5.7 6.9-9.9 13.1-11.4z"/>
	<path class="s0" d="m297.6 257.6c-52.4 12.3-101.1 40.3-138.2 79.4-17.5 18.4-32.7 39.9-39 64.5-7.7 29.5-1.7 61.7 13.2 88.3 14.9 26.6 38.2 48 64.3 63.7-14.2-9.6-25.6-23.4-34.8-37.8 7.2 7.3 16.6 13.2 26.5 16.2-18.2-17.2-31.3-39.7-37.9-63.9 7.1 14.4 17.7 27.7 30.4 37.6-13.5-17.1-20.7-39.1-20.1-60.9 3.8 8.3 9.1 16 15.2 22.8-3-5.4-5.7-13.8-6.2-20 10.2 10.4 21.4 19.7 33.6 27.6-13.1-25-14.6-56.3-3.4-82.2 1.9 4.9 2.8 9.8 4.7 14.6-4.3-8.3-2.2-18.1 0.8-27 3.1-8.8 7.8-17 10.4-26 2.7-8.9 2.9-19.3-2.5-26.9 6.5 6.8 11 15.6 12.3 24.9-1.3-5.3 3.2-9.8 7.1-13.6q17.7-16.9 35.3-33.7c0 1.8-0.6 3.2-0.6 5 9.9-10.8 19.1-21.4 28.3-32.8 2.4-2.9 4.8-5.9 5.9-9.5 1.2-3.5 0.9-7.8-1.7-10.6-1 0.2-2.6 0-3.6 0.3z"/>
	<path class="s0" d="m312.6 245.1c41.7-50.3 99.4-87.3 162.5-104.2-8.8 2-16.8 7.1-23.7 12.9 18.5-8.5 41.2-7.3 58.9 2.8-18 26.5-52.1 41.1-83.8 36.4 5.7 2.1 11.5 3.4 17.1 5.6-12.7 3-25.9 3.8-39 2.5 8.8 1.3 17.5 2.4 26.4 2.1-17.7 11.2-37.9 19.7-58.3 24.5 8-1.7 13.9-2.2 22-3.9-30.2 21.2-63.5 37.3-98.4 49.3 4.2-10.4 9.2-19.3 16.3-27.9z"/>
	<path class="s0" d="m313.3 261.2c-32.4-19.3-65.1-38.6-100.1-52.8-35-14.3-72.6-23.4-110.3-21.6-37.8 1.8-75.7 15.3-102.9 41.4 24-10.2 49.5-14.5 75.3-10.6-19.2-2.9-37.5 0.9-54.5 10.2 10.7-4.9 23.6-0.9 34.5 3.5 10.9 4.5 22.1 10.1 33.9 9.3 14-1 26.2-10.8 40.2-11.6-13.3 3.5-25.7 8.7-37.7 15.5 10.8-0.8 21.5 4 31.8 7.3 24.1 7.5 50.1 8.5 74.6 2.7-7 2.9-14.1 5.7-21.1 8.6 18.9-5.5 38.7-7.6 58.3-6-5.8 2.3-11.7 4.2-17.6 6.5 33.1 3.4 62.6 1.3 95.6-2.4z"/>
	<path class="s0" d="m309.2 260.7c-1-0.4-1.7-2.5-2-6.6-1-13.2-0.9-26.5 0.2-39.6 2.2-26.8 8.5-53.2 18.8-77.9 16.4-39.8 43.1-75.3 76.6-102.3-3.1 4.2-6.6 8-9.7 12.2 18.6-13.7 38.2-22.2 60-29.6-6.3 19.3-13.8 38-23.4 55.8-9.5 17.9-22.6 34.3-39.8 45 3.9-1.6 7.7-2.6 11.6-4.2-8.7 7.9-18.2 14.8-28.6 20.4 8.5-5.8 17.4-10 26.8-14.2-9.7 10.3-15.5 23.4-22.3 35.8-6.7 12.4-14.7 24.8-26.7 32.2 5.9-5.2 12-9.5 18-14.7-6.6 16.6-15.4 32.3-26.1 46.6-5.3 7.2-11.2 14-17.4 20.5-4.2 4.3-7 9.5-10.1 14.6-2.5 4.2-4.6 6.7-5.9 6z"/>
	<path class="s0" d="m318.2 264.5c-21-25.8-39.5-54.1-50.7-85.5-11.1-31.3-14.6-66-5.8-98.1 10.4-37.9 40.4-73.3 80.3-80.9-14.8 8.1-26.3 21-33.4 36.2 0.7-2.9 3-5.4 5.9-6.3-5.1 22.4-9.1 45.1-11.6 68 1.7-3.3 3.2-6.5 4.9-9.8-1.2 13.7-1.2 27.5-0.2 41.2 2.7-5 6.5-9.5 11.3-12.6-12.9 21.4-16.1 47.4-13.9 72.3 2.2 24.9 5.9 51.6 13.2 75.5z"/>
	<path class="s0" d="m316 271.7c-11.4-40.5-31.7-78.6-58.9-110.8-14.7-17.3-31.6-33.2-51.6-44.1-20-10.9-43.3-16.6-65.8-13.3-33.8 4.9-63.3 31.6-71.7 64.7 6.1-9.5 15.3-19.5 24.8-25.7-3.2 4.7-5.8 10.5-7.2 16 9.7-7.6 20.6-11.9 32.6-14.8-10.4 4.1-19.4 10.5-27.2 18.6 16.5-10.8 36.3-15.4 56-14.6-8.6 2.4-16.5 7.7-23 13.8 11.2-6.1 24.5-6.8 36.8-4-5.1 3.1-9.4 7.1-13 11.9 24.5-9.7 53.6-7.1 76.2 6.4-16.6-2.8-33.6-3-50.2 0.2 14.8-1.3 28.1 8 39.8 17.1 11.7 9.1 24 19 38.8 20-4.4 1.5-8.9 2.6-13.4 1.9 28.1 15.8 55.1 32.9 77.1 56.7z"/>
	<path class="s0" d="m309.2 260.7c0 0 162.5 233 252.9 788.2l84.8-32.8c0 0-138.3-488.3-333.8-760.9l-4 5.5z"/>
	<path class="s0" d="m365.6 634.8c0 0-23.2 47.5 12.5 97 0 0-3.3-6.1-5-12.6 0 0 2.8 5.7 25.6 24.9 0 0-7.6-30.1-17.5-41.7 0 0 3.4 5.3 8.5 8.2 0 0-9.6-9.3-13.7-20.9 0 0 2.4 5.3 7.7 10.3 0 0-3.3-12.5-9.7-24 0 0 3.5 4.6 5.3 7.4 0 0-4-20.5-8.7-27.3 0 0 2.2 2 3.9 4.2 0 0-3.9-15.7-8.9-25.5z"/>
	<path class="s0" d="m371.7 633.2c13.9-6.6 29.2-10.6 44.5-9.1 15.3 1.4 30.3 8.7 39.1 21.2 3 4.2 5.3 9.1 6 14.2 0.6 5.1-0.4 10.6-3.4 14.8 2.1-5.9 1.7-12.5-1.3-18.1 0.3 3.6-0.7 7.4-2.6 10.4 2.1-6.9 0.5-14.7-4.2-20.2 1.9 6.8 1.9 14-0.4 20.7 1.1-2.9-1.1-6.2-3.6-7.9-2.6-1.8-5.6-2.7-8.2-4.4-3.9-2.7-6.2-7-8.8-11.1-2.5-4-5.7-8-10.2-9.4 3.5 3.4 6.2 7.6 8.1 12.1-2.2-4.3-6.1-7.4-10.7-8.8 2 2.6 3.9 5.2 5.9 7.8q-10.1-3.6-20.3-7.2c-1.9-0.7-4-1.5-6-1.1-4.2 0.8-6.5 5.8-10.5 7-3 1-6.2-0.3-8.9-1.8-2.7-1.5-5.5-3.3-8.6-3.6 0.7-2.4 1.9-4.4 4.2-5.5z"/>
	<path class="s0" d="m360.8 637.2c-19.3 9.1-35.9 24-47 42.3-5.2 8.6-9.3 18.2-9.7 28.2-0.5 12.1 4.5 24.1 12.5 33.2 8 9.1 18.8 15.4 30.2 19.3-6.3-2.5-11.8-6.9-16.6-11.8 3.4 2.3 7.6 3.8 11.6 4.1-8.5-5.1-15.5-12.8-20-21.6 3.9 5 9.1 9.3 14.9 12.1-6.7-5.5-11.3-13.4-12.9-22 2.2 2.9 4.9 5.5 7.8 7.6-1.6-1.9-3.4-4.9-4-7.2 4.8 3.1 9.9 5.8 15.3 7.9-7.2-8.6-10.4-20.6-8.2-31.6 1.2 1.7 1.9 3.5 3.1 5.2-2.4-2.8-2.4-6.8-2-10.5 0.4-3.6 1.6-7.2 1.9-10.9 0.2-3.7-0.6-7.7-3.3-10.3 3.1 2.1 5.6 5.2 6.9 8.7-1-2 0.4-4.1 1.6-5.9 3.6-5.3 7.3-10.7 10.9-16 0.2 0.7 0 1.3 0.2 2 3-5 5.6-9.9 8.2-15.1 0.7-1.3 1.4-2.7 1.5-4.1 0.2-1.5-0.3-3.2-1.5-4-0.4 0.2-1 0.2-1.4 0.4z"/>
	<path class="s0" d="m365.6 631.1c11.9-23 31.2-42.2 54.3-54-3.3 1.5-5.9 4.2-8.2 7 6.5-4.9 15.4-6.3 23.1-3.9-4.8 11.8-16.8 20.3-29.4 21.1 2.3 0.4 4.7 0.4 7.1 0.8-4.7 2.2-9.8 3.6-15 4.2 3.6-0.2 7-0.5 10.5-1.4-6 5.8-13.1 10.8-20.6 14.4 3-1.4 5.2-2 8.2-3.4-10 10.7-21.5 19.7-34 27.3 0.7-4.4 1.9-8.2 4-12.2z"/>
	<path class="s0" d="m370.9 630.9c-14.9 0-30 0.2-44.8 2.4-14.8 2.3-29.5 6.9-42 15.2-12.4 8.3-22.6 20.6-26.5 35 6.1-8.3 13.9-15 23.4-18.9-7.1 2.9-12.6 7.9-16.5 14.6 2.7-3.9 7.9-5.2 12.5-5.9 4.6-0.7 9.6-1.1 13.4-3.7 4.6-3.2 6.8-9 11.4-12.2-3.8 3.9-7 8.2-9.7 13 3.5-2.5 8.1-3 12.3-4 9.7-2.3 18.8-7.3 25.9-14.3q-2.7 3.6-5.4 7.2c5.3-5.7 11.6-10.4 18.6-13.9-1.5 2-3.1 3.8-4.6 5.8 11.9-5.6 21.5-12.3 32-20.3z"/>
	<path class="s0" d="m363.4 638.7c-0.4-0.1-0.8-0.8-1.3-2.4q-2.2-7.6-3.2-15.4c-1.4-10.5-1.2-21.3 0.7-31.8 3.1-16.8 10.5-32.8 21.2-46-0.8 1.9-1.9 3.6-2.7 5.5 6-6.8 12.9-11.8 20.8-16.4-0.9 7.9-2.2 15.8-4.4 23.5-2.2 7.7-5.9 15.2-11.7 20.8 1.4-1 2.8-1.7 4.1-2.6-2.7 3.8-5.8 7.3-9.3 10.3 2.8-3 5.8-5.4 9.2-7.8-2.9 4.8-4.1 10.4-5.7 15.8-1.6 5.4-3.6 10.8-7.7 14.7 1.9-2.5 3.9-4.7 5.8-7.2-1.2 7-3.3 13.8-6.3 20.2-1.4 3.3-3.1 6.4-5 9.4-1.2 2-1.9 4.3-2.7 6.6-0.6 1.8-1.2 2.9-1.8 2.8z"/>
	<path class="s0" d="m367.6 640c-10.3-8.2-19.8-17.6-26.7-28.9-7-11.2-11.3-24.4-10.5-37.6 0.9-15.5 9.5-31.7 24.3-38-5 4.4-8.4 10.3-9.9 16.8 0.1-1.2 0.7-2.3 1.8-2.9-0.1 9.1 0.2 18.2 1.2 27.3 0.4-1.4 0.7-2.8 1.1-4.2 0.6 5.4 1.8 10.8 3.3 16 0.7-2.2 1.7-4.2 3.3-5.8-3.2 9.4-2.2 19.7 0.7 29.2 3 9.4 6.6 19.5 11.4 28.1z"/>
	<path class="s0" d="m365.9 644.2c-7.8-14.7-18.8-27.8-32.1-38-7.1-5.5-15-10.2-23.7-12.8-8.6-2.5-18.1-2.8-26.6 0.3-12.7 4.8-21.9 17.6-22.4 31.1 1.6-4.2 4.3-8.8 7.5-12-0.8 2.1-1.4 4.5-1.5 6.8 3.2-3.8 7-6.3 11.4-8.5-3.7 2.5-6.6 5.8-9 9.5 5.5-5.5 12.8-9 20.5-10.3-3.1 1.6-5.7 4.3-7.8 7.2 3.9-3.3 9-4.6 14-4.6-1.7 1.6-3.1 3.5-4.1 5.7 8.7-5.8 20.2-7.2 30.1-3.8-6.7 0.2-13.3 1.6-19.4 4.2 5.6-1.7 11.5 0.8 16.8 3.3 5.3 2.5 10.9 5.4 16.7 4.5-1.6 0.9-3.2 1.8-5 1.9 12.2 3.8 24.1 8.1 34.6 15.5z"/>
	<path class="s0" d="m352 624.6c0 0 147.3 137.1 292.7 508l53.9-35.3c0 0-168.7-317.5-344.7-477.1l-1.9 4.4z"/>
</svg>