<svg width="333" height="666" viewBox="0 0 333 666" fill="none" xmlns="http://www.w3.org/2000/svg">
<path d="M185.284 140.553C185.284 140.553 110.213 145.058 73.868 224.046C73.868 224.046 79.1151 215.651 85.9234 208.996C85.9234 208.996 80.8043 216.547 72.9722 258.114C72.9722 258.114 104.966 227.732 112.44 207.23C112.44 207.23 108.166 215.19 108.242 223.56C108.242 223.56 113.054 205.08 124.547 191.872C124.547 191.872 119.632 198.604 117.201 208.74C117.201 208.74 130.357 195.788 140.109 179.842C140.109 179.842 136.832 187.393 134.708 191.54C134.708 191.54 157.232 172.317 162.402 161.72C162.402 161.72 161.506 165.867 159.97 169.425C159.97 169.425 176.71 153.683 185.31 140.553H185.284Z" fill="#120B2F"/>
<path d="M189.149 141.474C206.963 154.042 222.679 170.321 231.612 190.209C240.544 210.097 242.054 233.901 232.687 253.584C229.513 260.239 225.11 266.433 219.223 270.861C213.337 275.289 205.863 277.874 198.542 277.081C207.322 275.596 215.256 270.349 220.042 262.824C215.819 265.614 210.342 267.175 205.3 266.868C215.359 264.59 223.933 257.244 227.414 247.518C220.35 254.608 211.391 259.701 201.563 261.544C205.888 260.776 208.448 255.836 208.857 251.459C209.267 247.083 208.243 242.655 208.601 238.278C209.165 231.546 212.927 225.608 216.126 219.67C219.326 213.731 222.116 206.974 220.58 200.396C218.763 207.051 215.512 213.399 211.366 218.902C215 213.117 216.152 206.104 214.719 199.423C212.825 203.698 211.007 207.947 209.139 212.221C207.424 202.136 205.684 192.077 203.969 181.993C203.482 179.1 202.919 176.08 201.051 173.827C197.16 169.143 189.405 169.809 184.977 165.611C181.752 162.565 181.086 157.728 181.035 153.3C180.984 148.872 181.342 144.239 179.551 140.195C183.006 139.222 186.334 139.401 189.251 141.449L189.149 141.474Z" fill="#120B2F"/>
<path d="M184.26 137.789C159.407 120.256 129.358 110.197 98.9512 109.224C84.6179 108.763 69.8494 110.401 57.0774 116.928C41.7458 124.786 30.4327 139.376 24.7762 155.629C19.1196 171.882 18.8381 189.697 22.0119 206.641C20.7066 197.069 22.2678 187.086 24.9297 177.821C24.5202 183.605 25.5696 189.799 27.9756 195.072C28.4363 180.943 33.0434 166.942 40.7476 155.092C37.3434 163.513 35.7053 172.983 36.294 182.044C38.444 169.912 45.022 158.624 54.4411 150.689C52.3934 155.424 51.1137 160.543 50.525 165.663C51.7024 162.361 54.2107 158.086 56.6678 155.578C56.1303 163.769 56.3607 171.985 57.5893 180.099C63.2459 165.202 75.8899 152.865 91.0167 147.874C89.7113 150.484 87.9708 152.711 86.6655 155.322C88.5595 150.408 93.4738 147.592 98.3369 145.57C103.2 143.548 108.447 142.447 113.208 140.195C117.968 137.942 122.448 134.154 123.625 129.009C123.215 134.308 121.194 139.529 117.738 143.573C119.504 141.014 123.062 141.244 126.133 141.475C135.296 142.217 144.434 142.959 153.597 143.701C152.804 144.418 152.036 144.674 151.242 145.391C159.51 145.519 167.444 145.391 175.711 145.032C177.836 144.93 179.986 144.802 181.931 143.957C183.876 143.113 185.566 141.372 185.77 139.273C185.284 138.889 184.798 138.173 184.311 137.84L184.26 137.789Z" fill="#120B2F"/>
<path d="M189.763 140.169C226.646 138.89 263.862 149.358 294.678 169.681C290.532 166.712 285.387 165.253 280.345 164.485C290.865 169.118 298.85 179.126 301.231 190.388C283.288 192.718 264.348 183.81 254.468 168.683C255.697 171.883 257.335 174.8 258.538 178.026C252.497 173.777 247.199 168.478 242.848 162.489C245.612 166.687 248.351 170.782 251.857 174.417C240.468 171.166 229.359 165.816 219.684 159.008C223.421 161.747 225.827 164.076 229.564 166.789C209.318 161.977 190.045 153.965 171.898 143.778C177.862 141.628 183.441 140.425 189.789 140.195L189.763 140.169Z" fill="#120B2F"/>
<path d="M190.352 149.563C182.648 129.675 174.815 109.736 164.219 91.2299C153.623 72.7242 140.083 55.575 122.652 43.2378C105.247 30.9263 83.7219 23.7083 62.5034 25.8839C76.7344 29.6977 89.5832 36.6598 99.6933 47.3588C92.1683 39.3985 82.6981 34.6889 71.8969 32.8972C78.3725 34.4841 82.7237 40.7039 86.0255 46.5141C89.3272 52.3244 92.3475 58.6722 97.8761 62.4091C104.428 66.8628 113.284 66.7604 119.786 71.2653C112.619 68.1938 105.299 66.1717 97.5946 64.9943C102.662 68.4497 105.734 74.2856 109.215 79.3279C117.277 91.0252 128.514 100.521 141.414 106.485C137.267 105.333 133.172 104.105 129.026 102.953C139.34 107.099 148.913 113.063 157.078 120.588C153.674 119.564 150.398 118.361 146.993 117.312C160.508 130.315 174.329 139.683 190.301 149.512L190.352 149.563Z" fill="#120B2F"/>
<path d="M175.788 143.983C175.609 143.394 176.223 142.37 177.836 140.706C183.057 135.357 188.688 130.391 194.652 125.912C206.759 116.8 220.273 109.582 234.581 104.616C257.54 96.6559 282.521 94.5827 306.478 98.6268C303.534 98.934 300.642 98.8315 297.699 99.1387C310.471 101.801 321.374 106.894 332.687 113.37C322.193 117.926 311.494 121.765 300.36 124.402C289.227 127.064 277.402 127.729 266.447 124.479C268.597 125.502 270.414 126.731 272.564 127.755C265.96 127.038 259.459 125.605 253.214 123.378C258.871 124.786 263.99 126.936 269.262 129.367C261.302 129.111 253.572 131.569 245.817 133.36C238.062 135.152 229.846 136.432 222.218 134.154C226.621 134.717 230.741 135.664 235.144 136.227C225.699 139.708 215.743 141.807 205.709 142.677C200.667 143.112 195.599 143.24 190.531 143.01C187.153 142.856 183.851 143.65 180.549 144.239C177.862 144.725 176.044 144.802 175.788 143.983Z" fill="#120B2F"/>
<path d="M180.626 142.908C183.62 124.351 188.637 105.922 197.672 89.4636C206.707 72.9799 220.042 58.5183 236.91 50.1997C256.797 40.3965 282.981 39.7822 301.154 53.7575C292.221 50.5836 282.444 50.5836 273.332 53.2456C274.842 52.4521 276.761 52.4778 278.246 53.3736C266.856 59.6446 255.799 66.453 245.228 74.0038C247.225 73.4919 249.195 72.9032 251.192 72.3913C244.947 76.9985 239.111 82.1688 233.71 87.7487C236.858 87.0065 240.16 86.9296 243.257 87.7999C229.385 90.3851 217.201 98.8061 207.526 109.07C197.851 119.334 187.946 130.878 180.6 142.933L180.626 142.908Z" fill="#120B2F"/>
<path d="M181.189 139.708C188.944 117.21 191.811 93.0473 189.558 69.3712C188.33 56.5733 185.591 43.7753 179.832 32.2828C174.073 20.7903 165.141 10.6288 153.623 4.9209C136.372 -3.65369 114.052 -0.812553 99.4888 11.8062C105.401 9.37457 112.901 7.73647 119.299 7.91564C116.305 9.04185 113.233 10.8848 110.827 12.9836C117.764 12.5741 124.188 14.1098 130.689 16.6182C124.547 15.1336 118.327 15.2616 112.107 16.4646C123.216 16.7974 133.889 20.9951 142.745 27.7268C137.984 26.063 132.66 25.9863 127.669 26.7029C134.785 27.522 141.183 31.4382 146.021 36.7365C142.668 36.5062 139.366 37.0181 136.167 38.0163C150.654 41.4462 163.323 52.0172 169.389 65.583C162.632 58.928 154.749 53.3225 146.072 49.4832C153.316 53.6297 156.464 62.2555 158.972 70.2158C161.48 78.1761 164.014 86.7763 170.516 91.9978C168.033 91.2812 165.55 90.3341 163.682 88.5424C171.642 104.949 178.655 121.587 181.138 139.657L181.189 139.708Z" fill="#120B2F"/>
<path d="M178.476 120.665C178.476 120.665 155.338 310.534 0 649.218L58.4595 665.266C58.4595 665.266 178.885 345.14 182.801 119.231L178.476 120.665Z" fill="#120B2F"/>
</svg>
