<svg fill="none" height="430" viewBox="0 0 1921 430" width="1921" xmlns="http://www.w3.org/2000/svg" xmlns:xlink="http://www.w3.org/1999/xlink"><linearGradient id="a" gradientUnits="userSpaceOnUse" x1="960.203" x2="960.203" y1="-3.31105" y2="324.443"><stop offset="0" stop-color="#a3747b"/><stop offset=".26" stop-color="#ff686b"/><stop offset=".47" stop-color="#c16f7e"/><stop offset=".68" stop-color="#d9727d"/><stop offset="1" stop-color="#6c4e69"/></linearGradient><radialGradient id="b" cx="0" cy="0" gradientTransform="matrix(959.153 0 0 95.8306 954.636 104.415)" gradientUnits="userSpaceOnUse" r="1"><stop offset="0" stop-color="#ff9f75"/><stop offset=".09" stop-color="#e18c67" stop-opacity=".89"/><stop offset=".35" stop-color="#925b43" stop-opacity=".57"/><stop offset=".58" stop-color="#533426" stop-opacity=".33"/><stop offset=".77" stop-color="#261711" stop-opacity=".15"/><stop offset=".91" stop-color="#0a0604" stop-opacity=".04"/><stop offset="1" stop-opacity="0"/></radialGradient><path d="m1920.02.52832h-1919.639141v428.49868h1919.639141z" fill="url(#a)"/><path d="m.999512 40h1918.000488v-17l-1918.000488-21.5v39.5z" fill="#fdb473" opacity=".13"/><path d="m72.9995 54.1574 828.9825 4.8426 1018.018-17z" fill="#ff5b38" opacity=".13"/><path d="m1.17822 64c8.7212 0 996.82078 16 996.82078 16l-996.82074-1z" fill="#ffb247" opacity=".13"/><path d="m1920.27 172-1920.27048828-49 1920.27048828 28.5z" fill="#ffdf6b" opacity=".13"/><path d="m1919.88 129-1883.8009-8.549 1883.8009-1.451z" fill="#fff" opacity=".13"/><path d="m.999512 117.5 1202.320488-6.577-1202.320488-4.423z" fill="#ffdea6" opacity=".21"/><path d="m.999512 197.296 1919.000488 21.204v-22l-1919.000488-36.5z" fill="#ffeca5" opacity=".13"/><path d="m1919.87 251.5-1237.87-32.5 1237.87 18.59z" fill="#fff" opacity=".13"/><path d="m.565575 280 1918.434425 22v-33.274l-1918.43457-51.726z" fill="#ffeca5" opacity=".06"/><path d="m1920 354-545-11h545z" fill="#fff" opacity=".13"/><path d="m1919 93.236h-1155.284l1155.284-18.236z" fill="#ffc86d" opacity=".21"/><path d="m.420415 332 1267.579585 3-1267.580078-11z" fill="#fff" opacity=".13"/><path d="m960 193.547c530.19 0 960-42.401 960-94.7049 0-52.3038-429.81-94.7044-960-94.7044-530.194 0-960.00048828 42.4006-960.00048828 94.7044 0 52.3039 429.80648828 94.7049 960.00048828 94.7049z" fill="url(#b)"/></svg>