<svg fill="none" height="98" viewBox="0 0 1920 98" width="1920" xmlns="http://www.w3.org/2000/svg"><path d="m1920-.0001297c-68.5 22.9984297-131 84.0001297-166 97.5001297-28.5 0-107.13.0052-146.72-9.5-69.12 0-78.09-2.4335-157.28-11.5-38.51-1.5366-52.55-4.0671-90-6.5-43.85-2.8683-67-5-115.5-5-57 5.5-14.5 3-82.5 3-43.78 0-54.32 5.5563-83 7.0417-55.47 2.8939-36.64 4.0022-91.865 0-33.303-2.4135-36.596 3.172-70.635 1.6712-41.5-5-83.5-10-120.5-15.5-44.5-5-127-16.4385-169-20.7129-41-4.1727-211.5-9-252-9-30.5 1.5-77.5.5-107.897 1.0182-44.103.7519-29.103 1.4818-75.603 1.4818l-191.49987793-33.99997711z" fill="#120b2f"/></svg>