<svg xmlns="http://www.w3.org/2000/svg" width="150" height="60" fill="none" viewBox="0 0 196 42"><g fill="#fff"><path d="M165.247 27.124v-3.345l7.362-8.553h6.062l-9.052 10.243z"/><path d="m169.619 25.459 9.052 10.243h-6.062l-7.362-8.553v-3.345zm-88.497-.68h3.658v2.87q0 .401-.261.691c-.174.193-.432.291-.764.291h-2.633v7.085h-4.344V28.63H64.513q-.503 0-.883-.312c-.38-.312-.414-.466-.481-.771l-.505-2.51 13.773-18.36h4.705zm-4.344-9.493a24 24 0 0 1 .184-2.93l-9.03 12.423h8.846zm25.014 16.459q1.83 0 3.188-.33a13.6 13.6 0 0 0 2.583-.911V25.22h-3.64q-.523-.001-.824-.29a.95.95 0 0 1-.3-.712v-3.05h9.674v11.74q-1.109.803-2.301 1.395a15 15 0 0 1-2.555.974q-1.358.383-2.906.572c-1.548.189-2.145.189-3.336.189q-3.178 0-5.85-1.104-2.677-1.104-4.627-3.071c-1.95-1.967-2.315-2.874-3.046-4.694q-1.097-2.73-1.096-5.959-.001-3.271 1.064-6.001c.71-1.82 1.721-3.383 3.025-4.694q1.96-1.965 4.758-3.05 2.791-1.083 6.273-1.083 3.56-.001 6.165 1.055c1.735.702 3.209 1.616 4.414 2.738l-1.569 2.447q-.463.742-1.227.743-.482.002-.986-.322c-.431-.253-.866-.509-1.318-.765a9 9 0 0 0-1.488-.662 12.6 12.6 0 0 0-1.831-.463 13.7 13.7 0 0 0-2.343-.179q-2.152 0-3.892.723a8.2 8.2 0 0 0-2.965 2.068q-1.225 1.345-1.891 3.232-.664 1.885-.665 4.213 0 2.509.704 4.466.703 1.956 1.968 3.302a8.5 8.5 0 0 0 3.015 2.058q1.756.707 3.825.708m23.969-16.934q1.95 0 3.588.62 1.637.621 2.824 1.816c1.187 1.195 1.407 1.774 1.852 2.93q.664 1.736.665 3.965a7 7 0 0 1-.05.932 1.5 1.5 0 0 1-.18.582.75.75 0 0 1-.35.302 1.5 1.5 0 0 1-.562.09h-12.749q.221 3.173 1.711 4.656 1.485 1.487 3.941 1.486 1.207 0 2.081-.28a9.5 9.5 0 0 0 1.527-.62q.653-.343 1.145-.621.493-.28.955-.28.3-.001.523.119.223.119.382.34l1.449 1.805a8.3 8.3 0 0 1-1.852 1.616q-1.023.652-2.142 1.044-1.115.392-2.273.55-1.154.16-2.241.162-2.151 0-4.001-.711-1.849-.712-3.216-2.107c-1.367-1.395-1.63-2.079-2.153-3.453q-.784-2.055-.784-4.764-.001-2.108.682-3.964c.683-1.856 1.11-2.314 1.961-3.232q1.278-1.372 3.118-2.177 1.836-.808 4.149-.806m.099 3.55q-2.173 0-3.396 1.224c-.817.817-1.343 1.973-1.57 3.47h9.331q0-.963-.261-1.816a4.2 4.2 0 0 0-.806-1.496 3.8 3.8 0 0 0-1.368-1.013q-.822-.369-1.93-.368m21.391-3.551c1.301 0 2.495.206 3.591.62q1.637.621 2.824 1.816c1.187 1.195 1.407 1.774 1.852 2.93q.664 1.736.665 3.965a7 7 0 0 1-.05.932 1.5 1.5 0 0 1-.18.582.74.74 0 0 1-.35.302q-.223.09-.562.09h-12.749q.222 3.173 1.711 4.656 1.484 1.487 3.941 1.486 1.208 0 2.082-.28a9.5 9.5 0 0 0 1.526-.62q.653-.343 1.146-.621.492-.28.954-.28.301-.001.523.119.223.119.382.34l1.449 1.805a8.3 8.3 0 0 1-1.852 1.616q-1.023.652-2.142 1.044-1.115.392-2.273.55-1.154.16-2.241.162-2.151 0-4.001-.711-1.849-.712-3.216-2.107c-1.367-1.395-1.629-2.079-2.153-3.453q-.784-2.055-.784-4.764-.001-2.108.682-3.964c.683-1.856 1.11-2.314 1.962-3.232q1.277-1.372 3.117-2.177c1.219-.54 2.605-.806 4.146-.806m.102 3.55q-2.173 0-3.396 1.224-1.228 1.225-1.57 3.47h9.332q-.001-.963-.262-1.816a4.2 4.2 0 0 0-.806-1.496 3.8 3.8 0 0 0-1.368-1.013q-.826-.369-1.93-.368m17.891 7.924v9.429h-4.966V5.897h4.966v17.075m29.398-3.829q-.202.32-.42.452-.223.13-.562.13-.362 0-.774-.2a80 80 0 0 0-.955-.452q-.541-.253-1.237-.453c-.696-.2-1.007-.2-1.64-.2q-1.468 0-2.311.62-.844.623-.845 1.627 0 .663.435 1.115.43.451 1.145.792a11 11 0 0 0 1.619.614 60 60 0 0 1 1.852.592q.944.322 1.852.733c.604.273 1.141.62 1.619 1.044q.715.631 1.145 1.515.434.883.434 2.128.001 1.484-.544 2.737a6 6 0 0 1-1.587 2.167q-1.045.914-2.584 1.423-1.538.51-3.527.511-1.064 0-2.082-.189a12 12 0 0 1-1.951-.533 10.7 10.7 0 0 1-1.728-.802 8.3 8.3 0 0 1-1.396-1.003l1.145-1.886a1.6 1.6 0 0 1 .523-.522q.302-.181.763-.182.462 0 .877.26.414.26.954.56.543.302 1.276.56.734.262 1.859.26.885 0 1.52-.21.632-.212 1.046-.55.414-.341.605-.793c.191-.452.191-.613.191-.932q0-.722-.432-1.185-.434-.462-1.145-.803a11 11 0 0 0-1.629-.613q-.917-.27-1.87-.593a14 14 0 0 1-1.87-.753 6.4 6.4 0 0 1-1.629-1.094 4.9 4.9 0 0 1-1.145-1.626c-.29-.642-.431-1.417-.431-2.328q0-1.262.501-2.408c.336-.764.828-1.427 1.478-1.998s1.46-1.024 2.432-1.364 2.092-.512 3.368-.512q2.131.001 3.881.701 1.749.704 2.916 1.848zM4.203 30.984h2.171v2.348c0 4.502 3.71 8.151 8.287 8.151h20.767c4.577 0 8.287-3.65 8.287-8.15v-2.349h3.304c1.032 0 1.87-.823 1.87-1.837v-9.843h1.295a.89.89 0 0 0 .895-.88v-.94c0-.485-.4-.88-.89-.88h-1.296v-1.82c0-1.013-.839-1.839-1.869-1.839H43.97c-.41-2.617-2.886-3.631-2.886-3.631C48.528 7.118 44.06.417 44.06.417c-1.512 2.834-3.428 3.172-6.676 2.95C34.056 3.141 18.857-4 10.682 3.224c-3.97 3.51-4.808 7.063-4.67 9.721H4.203c-1.03 0-1.869.824-1.869 1.84v1.82H.894a.89.89 0 0 0-.894.88v.94c0 .482.4.88.894.88h1.44v9.842c0 1.014.839 1.837 1.87 1.837M31.558 16.87c0-.612.504-1.108 1.126-1.108h12.214c.622 0 1.126.496 1.126 1.108v10.21c0 .612-.504 1.107-1.126 1.107H32.684a1.116 1.116 0 0 1-1.126-1.107zm-26.353 0c0-.612.504-1.108 1.126-1.108h12.214c.622 0 1.126.496 1.126 1.108v10.194c0 .612-.504 1.107-1.126 1.107H6.331a1.116 1.116 0 0 1-1.126-1.107z"/></g></svg>