<svg xmlns="http://www.w3.org/2000/svg" width="148" height="50" fill="none" viewBox="0 0 148 50"><g fill="#fff"><path d="M21.746 13.667v5.943l3.172 1.278 3.173-1.278v-5.944h4.117l-1.264 1.26h-1.485v5.605l-3.856 3.909v1.102l3.748 1.501-.83 1.14-3.603-1.442-3.659 1.464-.773-1.162 3.748-1.5v-1.102l-3.857-3.91v-5.605h-1.49l-1.264-1.26z"/><path fill-rule="evenodd" d="M8.085.001a1.4 1.4 0 0 1 1.25.768C14.027.639 28.972.765 33.191.747c.906.047 1.783.694 2.473 1.287 1.36 1.168 2.874 2.78 4.051 4.279h.003l.008.01c4.222 5.49 6.207 13.248 4.4 20.085-.97 3.85-3.066 7.105-5.446 10.124-3.222 4.32-7.787 7.974-12.332 10.884-1.22.763-2.295 1.35-3.09 1.678a.8.8 0 0 1-.35.074c-.381-.063-.419-.547-.504-.966-.239-1.884-.809-3.444-2.252-4.721-2.103-1.765-5.064-4.024-7.273-5.791-.25-.198-.523-.417-.672-.687-.317-.554.14-1.089.737-.882.283.088.55.301.821.514 1.142.9 2.351 1.857 3.519 2.78.921.726 1.762 1.395 2.596 2.05.925.725 1.845 1.488 2.508 2.476.497.68.757 1.548 1.223 2.231.575.794 1.582.304 2.266-.09 5-2.942 8.908-6.922 10.621-11.813.276-.8.465-1.646.43-2.503-.017-1.699-1.243-3.15-3.023-2.94-1.596.182-2.484 1.65-3.335 2.852-.421.588-.812 1.204-1.27 1.758-.636.785-1.482.874-2.468.85l-2.45.005c-.613 0-1.255.003-1.846-.004-.55-.012-1.06-.058-1.494-.366a2.7 2.7 0 0 1-.57-.584c-1.19-1.597-2.954-4.193-4.278-6.029-.564-.823-1.07-.727-1.718-.03-1.078 1.193-2.248 2.533-3.304 3.714-.346.374-.734.873-1.264.925-.533.036-.664-.468-.44-.918.075-.165.186-.332.315-.497 1.914-2.232 3.936-4.414 5.727-6.493.26-.314.512-.67.578-1.07.119-.69-.27-1.292-.63-1.933l-.572-.998q-.496-.866-.986-1.716c-.245-.426-.505-.87-.738-1.093-.318-.328-.586-.169-.842.132-2.11 2.334-8.584 9.674-10.904 12.275-.17.188-.345.405-.572.506-.3.147-.713.023-.815-.319-.09-.3.03-.608.254-.942 6.558-7.506 12.266-13.86 18.048-20.366a3 3 0 0 1 .788-.61c.422-.22.923-.278 1.405-.28 3.056.012 6.215-.039 9.231.025.783.042 1.445.468 1.947 1.046 1.083 1.118 2.032 2.625 3.615 3.067 1.004.284 2.108.005 2.885-.696.513-.437.974-1.153.775-1.829-.095-.34-.323-.636-.556-.907-1.262-1.452-2.994-3.456-4.405-5.052-.3-.337-.752-.841-1.06-.963-4.325-.56-18.732.031-23.657-.194a1.4 1.4 0 0 1-1.215.704 1.4 1.4 0 0 1-1.4-1.396A1.4 1.4 0 0 1 8.085 0M29.65 9.04c-2.497-.007-7.84.005-9.436 0-.26.003-.454-.002-.642.202-1.129 1.236-2.538 2.85-3.725 4.176-.492.553-.954 1.077-1.43 1.61-.391.454-.526.498-.184 1.055.969 1.688 2.037 3.541 3 5.218.294.514.546.943.706 1.23.203.326.14.622-.11.943-.228.3-.505.592-.77.899-.22.252-.378.45-.455.633a.5.5 0 0 0-.032.334c.034.118.116.24.194.349 1.027 1.439 3.609 5.109 4.863 6.855a.8.8 0 0 0 .222.22c.251.13.575.087.866.098 1.244-.006 3.599.01 4.741-.004.165 0 .318-.015.453-.059h-.001l.004-.003c.2-.085.313-.295.447-.475.934-1.329 3.899-5.543 4.747-6.753.092-.136.184-.273.172-.427-.01-.128-.101-.279-.261-.48-.342-.437-.879-.948-1.185-1.427-.166-.267-.07-.476.069-.717.776-1.374 3.115-5.384 3.826-6.67.08-.165.11-.276.01-.434-1.286-1.524-4.212-4.741-5.383-6.076-.21-.24-.367-.31-.706-.297m59.441 8.248c1.877 0 3.508.675 4.67 1.865 1.159 1.188 1.81 2.849 1.81 4.75 0 1.903-.651 3.564-1.81 4.752-1.162 1.19-2.793 1.865-4.67 1.865-1.439 0-2.756-.395-3.784-1.114v6.324h-3.07V17.518h2.898l.011 1c1.052-.791 2.442-1.23 3.945-1.23m-.186 2.93c-1.08 0-1.97.38-2.59 1.005-.62.626-1.008 1.54-1.008 2.68s.388 2.055 1.008 2.682 1.51 1.005 2.59 1.005 1.97-.38 2.589-1.005c.62-.627 1.008-1.541 1.008-2.681s-.389-2.055-1.008-2.68c-.62-.627-1.51-1.007-2.59-1.007m14.975-2.929c1.877 0 3.508.675 4.668 1.865 1.16 1.188 1.813 2.849 1.813 4.75s-.653 3.564-1.813 4.752c-1.16 1.19-2.791 1.865-4.668 1.865-1.439 0-2.756-.395-3.785-1.114v6.324h-3.07V17.518h2.9l.01 1c1.052-.791 2.442-1.23 3.945-1.23m-.187 2.93c-1.08 0-1.97.38-2.589 1.005-.62.626-1.009 1.54-1.009 2.68s.389 2.055 1.009 2.682c.619.625 1.509 1.005 2.589 1.005s1.97-.38 2.59-1.005c.619-.627 1.007-1.541 1.008-2.681 0-1.141-.389-2.055-1.008-2.68-.62-.627-1.51-1.007-2.59-1.007" clip-rule="evenodd"/><path d="M8.085 32.212a1.4 1.4 0 0 1 1.402 1.398 1.4 1.4 0 0 1-1.402 1.397 1.4 1.4 0 0 1-1.401-1.397 1.4 1.4 0 0 1 1.401-1.398m5.626-10.137L3.491 33.688l-1.03-.9L12.993 20.82z"/><path fill-rule="evenodd" d="M73.132 17.289c1.523 0 2.91.45 3.969 1.25l.012-1.02h2.898v12.77h-2.898l-.012-1c-1.061.795-2.448 1.232-3.969 1.232-1.866 0-3.49-.677-4.648-1.866-1.156-1.188-1.808-2.848-1.808-4.75s.652-3.562 1.808-4.75c1.158-1.19 2.783-1.866 4.648-1.866m.21 2.928c-1.08 0-1.97.38-2.589 1.006-.62.626-1.008 1.54-1.008 2.68s.389 2.055 1.008 2.681c.62.626 1.51 1.006 2.59 1.006s1.969-.38 2.588-1.006c.62-.626 1.01-1.54 1.01-2.68s-.39-2.055-1.009-2.68c-.62-.627-1.51-1.007-2.59-1.007m43.311-2.929c1.935 0 3.506.502 4.919 1.542l.515.379-1.589 2.355-.56-.41c-.961-.701-1.948-1.028-3.216-1.028-.981 0-1.646.152-2.042.37-.354.196-.475.428-.475.723 0 .16.029.254.066.318s.111.149.275.246c.358.21 1.004.4 2.134.584 1.765.257 3.107.639 4.014 1.286.97.692 1.385 1.644 1.385 2.822 0 1.235-.607 2.273-1.607 2.98-.985.696-2.339 1.066-3.891 1.066-2.165 0-4.16-.746-5.583-2.05l-.513-.47.458-.457 1.339-1.8.547.528.081.075c.847.77 2.202 1.29 3.697 1.29.877 0 1.517-.168 1.914-.406.373-.224.511-.489.511-.78a.7.7 0 0 0-.077-.362c-.044-.075-.128-.17-.309-.276-.394-.229-1.102-.429-2.334-.626-1.631-.225-2.906-.602-3.784-1.231-.932-.668-1.372-1.587-1.372-2.715 0-1.237.602-2.256 1.606-2.94.984-.672 2.337-1.013 3.891-1.013" clip-rule="evenodd"/><path d="M129.333 17.863c1.617 0 3.047.555 4.243 1.736l-1.078 1.135c-.844-.857-1.992-1.274-3.165-1.274-2.436 0-4.335 1.667-4.335 4.353s1.874 4.353 4.335 4.353c1.242 0 2.414-.44 3.282-1.32l1.078 1.18c-1.219 1.182-2.671 1.737-4.36 1.737-3.538 0-6.069-2.385-6.069-5.95 0-3.543 2.531-5.95 6.069-5.95"/><path fill-rule="evenodd" d="M141.24 17.863c3.609 0 6.023 2.547 6.023 5.95s-2.414 5.95-6.023 5.95c-3.61 0-6.046-2.547-6.046-5.95s2.436-5.95 6.046-5.95m0 1.597c-2.556 0-4.313 1.922-4.313 4.353s1.734 4.352 4.313 4.353 4.289-1.922 4.289-4.353-1.734-4.353-4.289-4.353m-84.28-6.014c4.922 0 8.296 3.288 8.296 8.103 0 4.816-3.375 8.104-8.296 8.104h-5.858V13.446zm-4.054 14.517h4.054c3.82 0 6.47-2.616 6.47-6.414 0-3.796-2.672-6.414-6.47-6.414h-4.054z" clip-rule="evenodd"/><path d="M13.727 6.019c.286.18.45.56.563.864l.002.008c.07.233.02.371-.124.535-1.32 1.426-6.144 7.148-7.585 8.54-.173.09-.642.087-.918.09-.405 0-.952.003-1.392-.002a2.2 2.2 0 0 1-.47-.04 1.4 1.4 0 0 1-2.597-.725 1.4 1.4 0 0 1 2.672-.587c.602-.106 1.496.053 2.068-.133 1.47-1.395 5.281-5.994 7.287-8.187.223-.247.344-.43.494-.363"/></g></svg>