<svg height="250" preserveAspectRatio="xMidYMid meet" viewBox="0 0 375 187.499995" width="500" xmlns="http://www.w3.org/2000/svg" zoomAndPan="magnify"><g fill="#fff"><path d="m27.214844-46.519531c-.699219 0-1.105469.347656-1.28125 1.046875l-6.453125 28.957031-6.453125-28.957031c-.175782-.699219-.582032-1.046875-1.28125-1.046875h-7.675782c-.753906 0-1.164062.40625-1.164062 1.160156v44.195313c0 .757812.410156 1.164062 1.164062 1.164062h5.351563c.753906 0 1.160156-.40625 1.160156-1.164062v-26.167969h.410157l5.753906 26.285156c.175781.699219.582031 1.046875 1.28125 1.046875h2.847656c.699219 0 1.105469-.347656 1.28125-1.046875l5.757812-26.285156h.40625v26.167969c0 .757812.40625 1.164062 1.164063 1.164062h5.40625c.757813 0 1.164063-.40625 1.164063-1.164062v-44.195313c0-.753906-.40625-1.160156-1.164063-1.160156zm0 0" transform="translate(12.307621 116.518911)"/><path d="m2.675781-46.519531c-.582031 0-.929687.347656-.929687.929687v5.8125c0 .582032.347656.933594.929687.933594h6.746094v37.914062c0 .640626.347656.929688.929687.929688h6.046876c.640624 0 .929687-.289062.929687-.929688v-37.914062h6.746094c.640625 0 .929687-.351562.929687-.933594v-5.8125c0-.582031-.289062-.929687-.929687-.929687zm0 0" transform="translate(51.268936 116.518911)"/><path d="m26.109375-45.589844c0-.582031-.230469-.929687-.929687-.929687h-21.398438c-.523438 0-.875.347656-.875.929687v44.660156c0 .582032.351562.929688.875.929688h21.398438c.699218 0 .929687-.347656.929687-.929688v-5.816406c0-.640625-.230469-.929687-.929687-.929687h-14.539063v-11.746094h11.109375c.582031 0 .929688-.347656.929688-.988281v-5.757813c0-.640625-.347657-.988281-.929688-.988281h-11.109375v-11.628906h14.539063c.699218 0 .929687-.410156.929687-.992188zm0 0" transform="translate(78.018478 116.518911)"/><path d="m18.257812-27.097656h-7.441406v-18.492188c0-.582031-.347656-.929687-.929687-.929687h-5.992188c-.695312 0-.988281.347656-.988281.929687v44.660156c0 .582032.292969.929688.988281.929688h5.992188c.582031 0 .929687-.347656.929687-.929688v-18.492187h7.441406v18.492187c0 .582032.351563.929688.933594.929688h5.988282c.699218 0 .988281-.347656.988281-.929688v-44.660156c0-.582031-.289063-.929687-.988281-.929687h-5.988282c-.582031 0-.933594.347656-.933594.929687zm0 0" transform="translate(107.035934 116.518911)"/><path d="m26.109375-45.589844c0-.582031-.230469-.929687-.929687-.929687h-21.398438c-.523438 0-.875.347656-.875.929687v44.660156c0 .582032.351562.929688.875.929688h21.398438c.699218 0 .929687-.347656.929687-.929688v-5.816406c0-.640625-.230469-.929687-.929687-.929687h-14.539063v-11.746094h11.109375c.582031 0 .929688-.347656.929688-.988281v-5.757813c0-.640625-.347657-.988281-.929688-.988281h-11.109375v-11.628906h14.539063c.699218 0 .929687-.410156.929687-.992188zm0 0" transform="translate(136.111547 116.518911)"/><path d="m26.808594-38.148438c0-5.464843-2.910156-8.371093-8.375-8.371093h-14.59375c-.582032 0-.933594.347656-.933594.929687v44.660156c0 .582032.351562.929688.933594.929688h6.046875c.582031 0 .929687-.347656.929687-.929688v-14.65625h4.011719l3.898437 14.773438c.113282.523438.40625.8125.988282.8125h6.046875c.640625 0 .988281-.347656.8125-1.046875l-4.011719-15.234375c2.792969-1.222656 4.246094-3.78125 4.246094-7.675781zm-15.992188 14.886719v-15.582031h5.757813c1.511719 0 2.324219.8125 2.324219 2.324219v10.933593c0 1.511719-.8125 2.324219-2.324219 2.324219zm0 0" transform="translate(165.129004 116.518911)"/><path d="m30.9375 0c.695312 0 .929688-.347656.8125-.988281l-9.652344-44.71875c-.117187-.582031-.464844-.8125-.988281-.8125h-8.082031c-.523438 0-.875.230469-.988282.8125l-9.65625 44.71875c-.171874.640625.117188.988281.757813.988281h6.222656c.523438 0 .8125-.289062.929688-.8125l1.570312-8.492188h10.351563l1.628906 8.492188c.113281.523438.40625.8125.929688.8125zm-10.175781-16.050781h-7.445313l3.722656-20.292969zm0 0" transform="translate(194.844264 116.518911)"/><path d="m20.761719-46.519531c-.640625 0-.933594.347656-.933594.929687v24.539063h-.347656l-8.839844-24.714844c-.171875-.523437-.523437-.753906-1.046875-.753906h-5.753906c-.582032 0-.933594.347656-.933594.929687v44.660156c0 .582032.351562.929688.933594.929688h6.046875c.640625 0 .929687-.347656.929687-.929688v-24.65625h.289063l8.898437 24.828126c.175782.523437.523438.757812 1.046875.757812h5.757813c.582031 0 .929687-.347656.929687-.929688v-44.660156c0-.582031-.347656-.929687-.929687-.929687zm0 0" transform="translate(228.920883 116.518911)"/><path d="m2.90625-1.164062c0 .757812.410156 1.164062 1.164062 1.164062h5.292969c.753907 0 1.164063-.40625 1.164063-1.164062v-5.347657c0-.757812-.410156-1.164062-1.164063-1.164062h-5.292969c-.753906 0-1.164062.40625-1.164062 1.164062zm0 0" transform="translate(259.566572 116.518911)"/><path d="m2.90625-.929688c0 .640626.292969.929688.933594.929688h13.953125c5.46875 0 8.375-2.90625 8.375-8.375v-29.714844c0-5.464844-2.90625-8.429687-8.375-8.429687h-13.953125c-.640625 0-.933594.347656-.933594.929687zm7.910156-6.746093v-31.167969h5.351563c1.511719 0 2.324219.8125 2.324219 2.382812v26.457032c0 1.570312-.8125 2.328125-2.324219 2.328125zm0 0" transform="translate(272.999517 116.518911)"/><path d="m26.109375-45.589844c0-.582031-.230469-.929687-.929687-.929687h-21.398438c-.523438 0-.875.347656-.875.929687v44.660156c0 .582032.351562.929688.875.929688h21.398438c.699218 0 .929687-.347656.929687-.929688v-5.816406c0-.640625-.230469-.929687-.929687-.929687h-14.539063v-11.746094h11.109375c.582031 0 .929688-.347656.929688-.988281v-5.757813c0-.640625-.347657-.988281-.929688-.988281h-11.109375v-11.628906h14.539063c.699218 0 .929687-.410156.929687-.992188zm0 0" transform="translate(302.07513 116.518911)"/><path d="m23.203125-46.519531c-.699219 0-1.105469.347656-1.28125 1.046875l-6.164063 31.167968-6.105468-31.167968c-.171875-.699219-.582032-1.046875-1.277344-1.046875h-5.527344c-.871094 0-1.21875.464843-1.046875 1.277343l9.769531 44.195313c.175782.699219.582032 1.046875 1.28125 1.046875h5.816407c.695312 0 1.101562-.347656 1.277343-1.046875l9.828126-44.195313c.175781-.8125-.175782-1.277343-1.046876-1.277343zm0 0" transform="translate(331.092587 116.518911)"/></g></svg>