<svg enable-background="new 0 0 500 429.34" viewBox="0 0 500 429.34" xmlns="http://www.w3.org/2000/svg"><g fill="#fff"><path d="m419.06 218.8c-1.11 0-2.01-.9-2.01-2.01v-40.9c0-1.11.9-2.01 2.01-2.01s2.01.9 2.01 2.01v40.9c.01 1.11-.9 2.01-2.01 2.01z"/><path d="m447.84 178.85-11.7-62.8 7.22-65.91h-15.53v-11.91h-19.78v11.91h-15.21l8.09 64.67-.05.28-9.59 63.49h-19.41v-52.26h-13.64v22.62h-31.47v-4.03h27.44v-22.62h21.7v52.26h11.91l9.04-59.79-8.58-68.65h15.74v-11.9h27.84v11.9h16l-7.65 69.79 11.59 62.21z"/><path d="m177.03 177.78h-14.78v-38.49h-19.21v-44.04h-13.78v78.72h-4.03v-82.75h21.84v44.04h19.21v38.49h10.75z"/><path d="m90.65 165.32-4.02-.23 1.3-115.13-20.69-9.71 38.59-18.98zm-14.1-125.16 15.45 7.25-.84 74.76 9.91-94.08z"/><path d="m70.98 164.21h17.74v4.03h-17.74z" transform="matrix(.992 -.126 .126 .992 -20.3061 11.3848)"/><path d="m63.49 170.33-13.69-142.73 42.19 19.81-1.35 119.47zm-9-136.08 12.61 131.56 19.55-2.48 1.28-113.37z"/><path d="m79.85 86.88h-10.28c-1.11 0-2.01-.9-2.01-2.01v-27.93c0-1.11.9-2.01 2.01-2.01h10.28c1.11 0 2.01.9 2.01 2.01v27.92c.01 1.12-.9 2.02-2.01 2.02zm-8.26-4.03h6.25v-23.89h-6.25z"/><path d="m90.66 177.65h-27.38v-11.35l27.38-3.47zm-23.35-4.03h19.32v-6.22l-19.32 2.45z"/><path d="m419.06 176.54c-6.71 0-12.17-5.46-12.17-12.17s5.46-12.17 12.17-12.17 12.17 5.46 12.17 12.17-5.46 12.17-12.17 12.17zm0-20.31c-4.49 0-8.14 3.65-8.14 8.14s3.65 8.14 8.14 8.14 8.14-3.65 8.14-8.14-3.65-8.14-8.14-8.14z"/><path d="m328.36 178.79h-4.03v-85.04l-.06-14.92c-21.64-10.22-46.77-15.61-72.76-15.61-25.68 0-50.54 5.27-72.01 15.26l-.07 7.33v91.97h-15.16v-4.03h11.13v-87.96l.09-9.87 1.14-.54c22.26-10.59 48.15-16.18 74.88-16.18 27.05 0 53.21 5.72 75.64 16.55l1.13.55.07 17.45v85.04z"/><path d="m206.88 123.96c-.86 0-1.62-.54-1.9-1.35l-9.31-26.81c-.25-.73-.07-1.54.48-2.08l9.31-9.34c.39-.39.93-.61 1.46-.59.55.01 1.07.24 1.44.64l8.67 9.34c.5.54.66 1.3.44 1.99l-8.67 26.81c-.27.82-1.03 1.38-1.9 1.39-.01 0-.02 0-.02 0zm-6.99-28.29 6.92 19.95 6.46-19.97-6.44-6.94z"/><path d="m224.86 123.96c-.86 0-1.62-.54-1.9-1.35l-9.31-26.81c-.25-.73-.07-1.54.48-2.08l9.31-9.34c.39-.39.9-.61 1.46-.59.55.01 1.07.24 1.44.64l8.67 9.34c.5.54.66 1.3.44 1.99l-8.67 26.81c-.27.82-1.03 1.38-1.9 1.39-.01 0-.02 0-.02 0zm-7-28.29 6.92 19.95 6.46-19.97-6.44-6.94z"/><path d="m242.83 123.96c-.86 0-1.62-.54-1.9-1.35l-9.31-26.81c-.25-.73-.07-1.54.48-2.08l9.31-9.34c.39-.39.92-.61 1.46-.59.55.01 1.07.24 1.44.64l8.67 9.34c.5.54.66 1.3.44 1.99l-8.67 26.81c-.27.82-1.03 1.38-1.9 1.39 0 0-.01 0-.02 0zm-6.99-28.29 6.92 19.95 6.46-19.97-6.44-6.94z"/><path d="m260.81 123.96c-.86 0-1.62-.54-1.9-1.35l-9.31-26.81c-.25-.73-.07-1.54.48-2.08l9.31-9.34c.39-.39.89-.61 1.46-.59.55.01 1.07.24 1.44.64l8.67 9.34c.5.54.66 1.3.44 1.99l-8.67 26.81c-.27.82-1.03 1.38-1.9 1.39 0 0-.01 0-.02 0zm-6.99-28.29 6.92 19.95 6.46-19.97-6.44-6.94z"/><path d="m278.79 123.96c-.86 0-1.62-.54-1.9-1.35l-9.31-26.81c-.25-.73-.07-1.54.48-2.08l9.31-9.34c.39-.39.91-.61 1.46-.59.55.01 1.07.24 1.44.64l8.67 9.34c.5.53.66 1.3.44 1.99l-8.67 26.81c-.27.82-1.03 1.38-1.9 1.39-0 0-.01 0-.02 0zm-6.99-28.29 6.92 19.95 6.46-19.97-6.45-6.94z"/><path d="m296.77 123.96c-.86 0-1.62-.54-1.9-1.35l-9.31-26.81c-.25-.73-.07-1.54.48-2.08l9.31-9.34c.39-.39.93-.61 1.46-.59.55.01 1.07.24 1.44.64l8.67 9.34c.5.54.66 1.3.44 1.99l-8.67 26.81c-.27.82-1.03 1.38-1.9 1.39 0 0-.01 0-.02 0zm-6.99-28.29 6.92 19.95 6.46-19.97-6.44-6.94z"/><path d="m232.55 63.51c-.55 0-1.09-.22-1.49-.66-.75-.82-.69-2.1.13-2.85l19.17-17.46c.78-.71 1.96-.7 2.73.02l18.74 17.46c.81.76.86 2.03.1 2.85-.76.81-2.03.86-2.85.1l-17.38-16.19-17.8 16.21c-.38.34-.86.52-1.35.52z"/><path d="m197.7 155.51h4.03v21.05h-4.03z"/><path d="m215.09 155.51h4.03v21.05h-4.03z"/><path d="m232.48 155.51h4.03v21.05h-4.03z"/><path d="m249.87 155.51h4.03v21.05h-4.03z"/><path d="m267.25 155.51h4.03v21.05h-4.03z"/><path d="m284.64 155.51h4.03v21.05h-4.03z"/><path d="m302.03 155.51h4.03v21.05h-4.03z"/><path d="m190.79 174.55h123.46v4.03h-123.46z"/><path d="m127.37 220.21c-1.11 0-2.01-.9-2.01-2.01v-51.95c0-1.11.9-2.01 2.01-2.01s2.01.9 2.01 2.01v51.95c0 1.11-.9 2.01-2.01 2.01z"/><path d="m109.55 178.58h-63.74v-4.03h59.82c.77-7.43 5.75-13.18 11.76-13.18 6.54 0 11.87 6.82 11.87 15.19h-4.03c0-6.16-3.52-11.16-7.84-11.16s-7.84 5.01-7.84 11.16z"/><path d="m129.26 168.02h-4.03c0-6.16-5.01-11.16-11.16-11.16-6.16 0-11.16 5.01-11.16 11.16h-4.03c0-8.38 6.82-15.19 15.19-15.19s15.19 6.81 15.19 15.19z"/><path d="m148.97 176.57h-4.03c0-6.16-3.52-11.16-7.84-11.16s-7.84 5.01-7.84 11.16h-4.03c0-8.38 5.32-15.19 11.87-15.19 6.55-.01 11.87 6.81 11.87 15.19z"/><path d="m155.62 168.02h-4.03c0-6.16-5.01-11.16-11.16-11.16s-11.16 5.01-11.16 11.16h-4.03c0-8.38 6.82-15.19 15.19-15.19s15.19 6.81 15.19 15.19z"/><path d="m129.26 161.7h-4.03c0-6.16-3.9-11.16-8.68-11.16v-4.03c7.01 0 12.71 6.82 12.71 15.19z"/><path d="m129.26 161.7h-4.03c0-8.38 5.7-15.19 12.71-15.19v4.03c-4.78 0-8.68 5.01-8.68 11.16z"/><path d="m433.53 63.94h-30.55c-1.11 0-2.01-.9-2.01-2.01s.9-2.01 2.01-2.01h30.55c1.11 0 2.01.9 2.01 2.01s-.9 2.01-2.01 2.01z"/><path d="m432.67 83.9h-28.83c-1.11 0-2.01-.9-2.01-2.01s.9-2.01 2.01-2.01h28.83c1.11 0 2.01.9 2.01 2.01s-.9 2.01-2.01 2.01z"/><path d="m430.95 103.86h-25.4c-1.11 0-2.01-.9-2.01-2.01s.9-2.01 2.01-2.01h25.4c1.11 0 2.01.9 2.01 2.01s-.89 2.01-2.01 2.01z"/><path d="m416.66 119.36h4.03v14.25h-4.03z"/><path d="m301.41 38.27h-13.25c-3.88 0-7.04-3.16-7.04-7.04s3.15-7.03 7.02-7.04c1.13-2.42 3.57-4.03 6.37-4.03 1.9 0 3.72.78 5.03 2.12.61-.14 1.23-.22 1.87-.22 4.47 0 8.11 3.64 8.11 8.11s-3.64 8.1-8.11 8.1zm-13.25-10.05c-1.66 0-3.01 1.35-3.01 3.01s1.35 3.01 3.01 3.01h13.25c2.25 0 4.08-1.83 4.08-4.08s-1.83-4.08-4.08-4.08c-.6 0-1.18.13-1.72.38l-1.66.77-.93-1.57c-.54-.91-1.53-1.48-2.59-1.48-1.49 0-2.74 1.07-2.97 2.53l-.36 2.25-2.18-.62c-.28-.08-.56-.12-.84-.12z"/><path d="m351.39 94.36h-17.31c-4.73 0-8.58-3.85-8.58-8.58 0-4.85 4.09-8.78 8.95-8.57 1.3-3.15 4.37-5.28 7.92-5.28 2.44 0 4.76 1.06 6.37 2.83.86-.24 1.74-.35 2.64-.35 5.5 0 9.97 4.47 9.97 9.97.01 5.51-4.46 9.98-9.96 9.98zm-17.31-13.13c-2.51 0-4.55 2.04-4.55 4.55s2.04 4.55 4.55 4.55h17.31c3.28 0 5.94-2.67 5.94-5.94s-2.67-5.94-5.94-5.94c-.88 0-1.72.19-2.51.56l-1.65.77-.93-1.57c-.82-1.38-2.32-2.24-3.92-2.24-2.25 0-4.14 1.61-4.49 3.83l-.36 2.25-2.19-.63c-.41-.13-.83-.19-1.26-.19z"/><path d="m143.68 52.89c-3.16 0-6.27-1.53-8.16-4.35-1.46-2.17-1.98-4.79-1.47-7.35.51-2.57 1.99-4.78 4.16-6.24 2.18-1.46 4.79-1.98 7.36-1.47s4.78 1.99 6.24 4.16c1.46 2.18 1.98 4.79 1.47 7.35-.51 2.57-1.99 4.78-4.16 6.24-1.68 1.13-3.57 1.66-5.44 1.66zm-.03-15.57c-1.13 0-2.24.33-3.2.98-1.28.86-2.15 2.16-2.45 3.67s.01 3.05.86 4.33c1.77 2.64 5.36 3.36 8.01 1.59 1.28-.86 2.15-2.16 2.45-3.67s-.01-3.05-.86-4.33c-.86-1.28-2.16-2.15-3.67-2.45-.39-.08-.76-.12-1.14-.12z"/><path d="m134.78 28.28h4.03v9.11h-4.03z" transform="matrix(.8312 -.556 .556 .8312 4.8378 81.6062)"/><path d="m148.51 48.8h4.03v9.11h-4.03z" transform="matrix(.8312 -.556 .556 .8312 -4.2508 92.7054)"/><path d="m149.47 34.59h7.79v4.03h-7.79z" transform="matrix(.8311 -.5561 .5561 .8311 5.5455 91.4611)"/><path d="m128.93 47.92h9.03v4.03h-9.03z" transform="matrix(.8311 -.5561 .5561 .8311 -5.2333 82.6297)"/><path d="m152.66 42.74h4.03v5.97h-4.03z" transform="matrix(.1945 -.9809 .9809 .1945 79.7366 188.5506)"/><path d="m129.53 38.74h4.03v5.16h-4.03z" transform="matrix(.1248 -.9922 .9922 .1248 74.1279 166.6751)"/><path d="m138.35 52.38h4.89v4.03h-4.89z" transform="matrix(.267 -.9637 .9637 .267 50.7735 175.5443)"/><path d="m142.72 29.67h5.51v4.03h-5.51z" transform="matrix(.1946 -.9809 .9809 .1946 86.0937 168.2192)"/><path d="m412 0h-317.17l-11.42 17.07h7.95l7-10.46h309.89l6.2 10.35h7.71z"/></g><path d="m287.79 303.75h23.96 5.81c7.58 0 13.72-6.21 13.59-13.83-.12-7.45-6.36-13.36-13.81-13.36h.22c7.58 0 13.72-6.21 13.59-13.83-.12-7.45-6.36-13.36-13.81-13.36h-29.55c-.86 0-1.56.7-1.56 1.56v25.62 25.62c0 .89.7 1.58 1.56 1.58z" fill="none"/><path d="m206.05 289.11v-.15c0-7.28-4.14-10.96-10.66-13.11 4.75-2.07 8.28-5.75 8.28-11.96v-.15c0-3.68-1.3-6.52-3.45-8.66-3.14-3.14-7.9-4.83-14.65-4.83h-27.53v53.67h27.68c12.82-.02 20.33-5.61 20.33-14.81zm-33.5-26.92h9.66c4.45 0 6.75 1.69 6.75 4.6v.15c0 3.14-2.53 4.68-7.05 4.68h-9.35v-9.43zm0 29.75v-9.89h11.35c4.98 0 7.28 1.92 7.28 4.83v.15c0 3.14-2.61 4.91-7.13 4.91z" fill="none"/><path d="m226.06 303.9h14.95v-20.32l20.4-33.35h-16.64l-11.12 19.55-11.04-19.55h-16.94l20.39 33.58z" fill="none"/><path d="m242.32 418.68c2.04 2.58 5.09 4.06 8.38 4.06h.02c3.29 0 6.35-1.49 8.39-4.08l64.66-82.25h-146.55z" fill="none"/><path d="m369.72 250.96c-.8-1.53-2.98-1.53-3.78 0l-27.58 52.66h11.19l28.67-36.46z" fill="none"/><path d="m381.57 273.58-23.62 30.04h39.35z" fill="none"/><path d="m92.43 268.71v-.15c0-5.29-1.61-9.43-4.75-12.5-3.6-3.68-9.28-5.83-17.48-5.83h-25.39v53.67h14.87v-16.25h6.36.15l10.81 16.25h17.18l-12.8-18.71c6.68-2.83 11.05-8.28 11.05-16.48zm-14.95.92c0 3.91-2.91 6.36-7.97 6.36h-9.81v-12.88h9.74c4.98 0 8.05 2.15 8.05 6.36v.16z" fill="none"/><ellipse cx="425.13" cy="275.92" fill="none" rx="27.83" ry="27.83" transform="matrix(.3827 -.9239 .9239 .3827 7.5221 563.1036)"/><path d="m259.1 418.65c-2.04 2.59-5.09 4.08-8.39 4.08-.01 0-.01 0-.02 0-3.29 0-6.34-1.48-8.38-4.06l-65.1-82.27h-8.43l68.34 86.37c3.3 4.17 8.24 6.57 13.56 6.57h.03c5.33-.01 10.28-2.42 13.57-6.61l67.87-86.33h-8.41z" fill="#fff"/><path d="m24.44 143.32 21.81-37.23h-7.66l-22.13 37.79 58.8 74.32h8.43z" fill="#fff"/><path d="m482.15 145.64 1.33-1.7-20.22-37.85h-7.49l19.85 37.16-58.92 74.95h8.4z" fill="#fff"/><path d="m183.89 282.05h-11.35v9.89h11.5c4.52 0 7.13-1.76 7.13-4.91v-.15c.01-2.91-2.29-4.83-7.28-4.83z" fill="#fff"/><path d="m188.95 266.95v-.15c0-2.91-2.3-4.6-6.75-4.6h-9.66v9.43h9.35c4.53-.01 7.06-1.54 7.06-4.68z" fill="#fff"/><path d="m69.43 263.11h-9.74v12.88h9.81c5.06 0 7.97-2.45 7.97-6.36v-.15c.01-4.22-3.06-6.37-8.04-6.37z" fill="#fff"/><path d="m499.99 218.13c0-.08-.01-.17-.03-.25-.01-.04-.01-.09-.02-.13-.02-.08-.05-.16-.08-.25-.01-.03-.02-.07-.04-.1-.05-.11-.1-.21-.17-.31-.02-.03-.04-.05-.06-.07-.05-.07-.11-.14-.17-.21-.03-.03-.06-.06-.1-.09-.06-.05-.11-.1-.18-.15-.04-.03-.08-.06-.13-.08-.03-.02-.06-.05-.1-.06l-54.29-28.94c-.86-.46-1.92-.24-2.53.53l-22.29 28.18h-339.57c-.07-.25-.17-.49-.34-.7l-22.62-28.59c-.61-.78-1.7-.99-2.56-.51l-53.68 30.04c-.03.02-.05.04-.08.05-.04.03-.08.05-.12.08-.06.05-.12.09-.18.14-.03.03-.07.06-.1.09-.06.06-.11.12-.15.19-.02.03-.05.06-.07.1-.06.09-.1.18-.15.27-.01.02-.02.04-.03.06-.04.11-.08.22-.1.33-.01.04-.01.08-.02.12-.01.09-.02.17-.03.26 0 .02-.01.04-.01.06v118.21c0 1.11.9 2.01 2.01 2.01h495.97c1.11 0 2.01-.9 2.01-2.01v-118.2c.02-.02.01-.05.01-.07zm-444.81-27.39 19.03 24.06-64.2 1.24zm21.84 113.16-10.81-16.25h-.15-6.36v16.25h-14.89v-53.67h25.38c8.2 0 13.88 2.15 17.48 5.83 3.14 3.07 4.75 7.21 4.75 12.5v.15c0 8.2-4.37 13.65-11.04 16.49l12.8 18.71h-17.16zm72.22-23.92c0 6.68-1.47 11.91-4.15 15.81-1.29 1.88-2.86 3.46-4.68 4.74-4.21 2.97-9.77 4.37-16.32 4.37-15.26 0-24.84-7.74-24.84-24.54v-30.13h1.36 8.43 5.32v6.72 10.65 12.45c0 7.74 3.91 11.42 9.89 11.42 2.89 0 5.29-.83 7-2.53 1.6-1.58 2.6-3.92 2.83-7.07.03-.47.05-.95.05-1.45v-30.21h15.1v29.77zm56.81 9.13c0 9.2-7.51 14.8-20.32 14.8h-27.68v-53.67h27.53c6.75 0 11.5 1.69 14.65 4.83 2.15 2.15 3.45 4.98 3.45 8.66v.15c0 6.21-3.53 9.89-8.28 11.96 6.52 2.15 10.66 5.83 10.66 13.11v.16zm34.96-5.53v20.32h-14.95v-20.09l-20.4-33.58h16.95l11.04 19.55 11.12-19.55h16.64zm90.15 6.35c.13 7.61-6.01 13.83-13.59 13.83h-5.81-23.96c-.86 0-1.56-.7-1.56-1.56v-25.62-25.62c0-.86.7-1.56 1.56-1.56h29.55c7.45 0 13.69 5.91 13.81 13.36.13 7.61-6.01 13.83-13.59 13.83h-.22c7.45-.02 13.69 5.89 13.81 13.34zm26.79 13.69h-8.41-11.19l27.58-52.66c.8-1.53 2.98-1.53 3.78 0l8.49 16.2 3.36 6.42 15.74 30.04zm94.45 5.74-11-10.83 5.47-5.35-11.65-11.89-5.68 5.57 11.59 11.83c-4.53 3.19-10.03 5.07-15.99 5.07-15.37 0-27.83-12.46-27.83-27.83s12.46-27.83 27.83-27.83 27.83 12.46 27.83 27.83c0 6.43-2.19 12.35-5.85 17.07l10.86 10.68zm-27.17-93.51 19.01-24.03 45.62 24.32z" fill="#fff"/></svg>