<svg fill="#fff" height="500" viewBox="0 0 981 474" width="1000" xmlns="http://www.w3.org/2000/svg"><g fill="#fff"><path d="m461.932 264.31c.36 1.3 1.02 2.61 1.03 3.91.06 22.98-.01 45.96.12 68.94.02 2.9-.94 4.43-3.42 5.85-74.98 43.08-149.92 86.24-224.89 129.33-1.07.61-2.55.52-3.84.76.36-1.88 1.02-3.77 1.03-5.65.07-23.14.04-46.27.04-69.41 40.1-23.27 80.22-46.51 120.29-69.82 14.19-8.26 28.28-16.7 42.41-25.06 4.52-2.42 9.12-4.71 13.55-7.29 17.92-10.48 35.79-21.04 53.68-31.56"/><path d="m2.0109 209.7c-.34-1.67-.97-3.33-.97-5-.07-22.3.05-44.61-.14-66.91-.03-3.7 1.27-5.56 4.36-7.34 74.54-42.8001 149.0201-85.7201 223.5501-128.55 1.21-.7 2.85-.67 4.28-.98-.37 1.88-1.05 3.76-1.05 5.64-.07 23.1299-.05 46.2699-.05 69.3999-46.14 26.7601-92.29 53.5001-138.4101 80.3001-8.16 4.74-16.18 9.72-24.27 14.59-2.05.54-4.34.67-6.11 1.69-15.01 8.69-30 17.46-44.88 26.38-5.58 3.34-10.88 7.17-16.31 10.78"/><path d="m2.0004 341.7c-.33-1.49-.96-2.98-.96-4.47-.06-22.62.03-45.24-.13-67.86-.02-3.29 1-4.99 3.84-6.61 14.85-8.45 29.57-17.15 44.33-25.76q33.6301-19.35 67.2596-38.7c1.33-.67 2.7-1.27 3.99-2.02 35.86-20.63 71.71-41.3 107.6-61.88 1.5-.86 3.42-1 5.14-1.48-.36 1.88-1.02 3.77-1.03 5.65-.07 23.14-.04 46.27-.04 69.41-16.42 9.65-32.83 19.3-49.25 28.95-22.08 12.75-44.15 25.5-66.23 38.25-1.74.94-3.5 1.84-5.22 2.82-14.0096 8.04-28.0196 16.09-42.0196 24.13-1.55.52-3.24.8-4.62 1.61-16.17 9.44-32.33 18.9-48.41 28.5-4.88 2.92-9.5 6.29-14.25 9.46"/><path d="m461.88 133.99c.04 24.29.16 48.59-.03 72.88-.01 1.74-1.85 4.11-3.49 5.09-12.14 7.23-24.45 14.17-36.68 21.25-2.29 1.33-4.48 2.84-6.71 4.26-22.27 12.8-44.53 25.6-66.8 38.4-20.51 11.7-41.02 23.4-61.53 35.09-18.2 10.37-36.41 20.74-54.61 31.1l-.03-75.91c16.62-9.66 33.24-19.31 49.87-28.97 21.48-12.36 42.96-24.72 64.43-37.11.54-.31.92-.91 1.38-1.38.92-.32 1.93-.5 2.76-.97 14.16-8.19 28.31-16.4 42.44-24.65.79-.46 1.33-1.33 1.99-2.01 2.04-.55 4.33-.69 6.08-1.73 14.69-8.66 29.24-17.55 43.93-26.21 5.52-3.26 11.32-6.1 17-9.13"/><path d="m2 341.7c4.75-3.17 9.37-6.54 14.26-9.46 16.08-9.6 32.24-19.06 48.41-28.5 1.38-.81 3.07-1.09 4.62-1.61 1.74 1.23 3.39 2.6 5.22 3.67 52.49 30.76 104.99 61.5 157.49 92.23 0 23.14.03 46.27-.04 69.41-.01 1.89-.67 3.77-1.03 5.65-22.52-12.87-45.06-25.7-67.55-38.62-53.81-30.9-107.59-61.85-161.38-92.77"/><path d="m461.882 133.99c-5.68 3.03-11.47 5.87-17.02 9.14-14.69 8.66-29.24 17.56-43.93 26.21-1.76 1.04-4.04 1.17-6.08 1.73-.6-.27-1.23-.49-1.8-.82-53.68-31.42-107.37-62.85-161.05-94.2803 0-23.13-.03-46.27.05-69.4.01-1.88.69-3.76 1.05-5.64 19.93 11.37 39.88 22.69 59.77 34.12 54.94 31.6 109.85 63.23 164.74 94.9203 1.64.95 2.85 2.66 4.27 4.02"/><path d="m501 314v-30.8l55.4-83h-55.4v-34.8h102.6v30.8l-55.4 83h55.4v34.8zm190.202 0v-113.8h-37.4v-34.8h113.6v34.8h-37.4v113.8zm120.267 0 17.6-148.6h36.4l30.6 104.4 30.6-104.4h36l17.8 148.6h-37.4l-9.6-80.2-19.6 80.2h-36.4l-19.4-78.4-9.2 78.4z"/><path d="m116.351 198.29q-33.6294 19.35-67.2595 38.7c-15.69-9.1-31.38-18.19-47.07-27.29 5.43-3.61 10.72-7.43 16.3-10.78 14.89-8.92 29.87-17.68 44.89-26.37 1.77-1.02 4.06-1.15 6.11-1.69 15.67 9.14 31.3495 18.28 47.0295 27.43"/><path d="m348.16 275.87c22.27-12.8 44.53-25.6 66.8-38.4 15.66 8.94 31.31 17.89 46.97 26.83-17.89 10.52-35.76 21.08-53.68 31.55-4.43 2.58-9.03 4.87-13.55 7.29-15.52-9.08-31.03-18.18-46.54-27.27m-115.08-142.96c21.79 12.44 43.6 24.84 65.37 37.33 16.44 9.43 32.81 18.97 49.22 28.46-.45.47-.83 1.07-1.38 1.38-21.47 12.39-42.95 24.74-64.43 37.11-16.62-9.74-33.23-19.48-49.85-29.22 0-23.14-.03-46.27.04-69.41 0-1.88.67-3.77 1.03-5.65"/><path d="m232.021 342.07c-28.49-16.41-56.99-32.8-85.46-49.25-10.05-5.81-20.02-11.76-30.03-17.65 22.08-12.75 44.15-25.5 66.23-38.25 1.25.81 2.47 1.67 3.75 2.42 15.16 8.95 30.32 17.88 45.48 26.82z"/></g></svg>